<svg xmlns="http://www.w3.org/2000/svg" viewBox="0 0 880 360" role="img" aria-label="Capitulo II - El Taller y la Deuda">
  <defs>
    <linearGradient id="room2" x1="0" y1="0" x2="0" y2="1"><stop offset="0%" stop-color="#1a0d06"/><stop offset="100%" stop-color="#2e1a0a"/></linearGradient>
    <radialGradient id="forge2" cx="6%" cy="68%" r="48%"><stop offset="0%" stop-color="#ff5810" stop-opacity="0.85"/><stop offset="100%" stop-color="#ff5810" stop-opacity="0"/></radialGradient>
    <radialGradient id="lamp2" cx="60%" cy="12%" r="52%"><stop offset="0%" stop-color="#ffe090" stop-opacity="0.68"/><stop offset="100%" stop-color="#ffe090" stop-opacity="0"/></radialGradient>
    <clipPath id="cc2"><rect x="10" y="10" width="860" height="340" rx="15"/></clipPath>
  </defs>
  <rect width="880" height="360" rx="18" fill="#0e0804"/>
  <rect x="10" y="10" width="860" height="340" rx="14" fill="url(#room2)"/>
  <rect x="10" y="10" width="860" height="340" rx="14" fill="url(#forge2)" clip-path="url(#cc2)"/>
  <ellipse cx="528" cy="50" rx="250" ry="175" fill="url(#lamp2)" clip-path="url(#cc2)"/>
  <!-- Ceiling beams -->
  <rect x="10" y="10" width="860" height="36" fill="#120a04" clip-path="url(#cc2)"/>
  <g stroke="#5a3a18" stroke-width="2" clip-path="url(#cc2)" fill="none">
    <line x1="80" y1="14" x2="80" y2="46"/><line x1="160" y1="14" x2="160" y2="50"/>
    <line x1="260" y1="14" x2="260" y2="44"/><line x1="360" y1="14" x2="360" y2="48"/>
    <line x1="460" y1="14" x2="460" y2="42"/><line x1="560" y1="14" x2="560" y2="46"/>
    <line x1="660" y1="14" x2="660" y2="44"/><line x1="760" y1="14" x2="760" y2="48"/>
    <ellipse cx="80" cy="50" rx="8" ry="5" fill="#8a5c28" stroke="#8a5c28" stroke-width="1"/>
    <ellipse cx="160" cy="54" rx="8" ry="5" fill="#7a4c18" stroke="#7a4c18" stroke-width="1"/>
    <ellipse cx="360" cy="52" rx="8" ry="5" fill="#8a5c28" stroke="#8a5c28" stroke-width="1"/>
    <ellipse cx="560" cy="50" rx="8" ry="5" fill="#7a4c18" stroke="#7a4c18" stroke-width="1"/>
    <ellipse cx="760" cy="52" rx="8" ry="5" fill="#8a5c28" stroke="#8a5c28" stroke-width="1"/>
  </g>
  <!-- Forge / back-left brick wall -->
  <rect x="10" y="46" width="188" height="200" fill="#1e0e06" clip-path="url(#cc2)"/>
  <g stroke="#2a1208" stroke-width="0.8" fill="none" clip-path="url(#cc2)">
    <line x1="10" y1="62" x2="198" y2="62"/><line x1="10" y1="78" x2="198" y2="78"/>
    <line x1="10" y1="94" x2="198" y2="94"/><line x1="10" y1="110" x2="198" y2="110"/>
    <line x1="10" y1="126" x2="198" y2="126"/><line x1="10" y1="142" x2="198" y2="142"/>
    <line x1="10" y1="158" x2="198" y2="158"/><line x1="10" y1="174" x2="198" y2="174"/>
    <line x1="10" y1="190" x2="198" y2="190"/><line x1="10" y1="206" x2="198" y2="206"/>
    <line x1="56" y1="62" x2="56" y2="78"/><line x1="112" y1="62" x2="112" y2="78"/><line x1="164" y1="62" x2="164" y2="78"/>
    <line x1="34" y1="78" x2="34" y2="94"/><line x1="90" y1="78" x2="90" y2="94"/><line x1="148" y1="78" x2="148" y2="94"/>
    <line x1="56" y1="94" x2="56" y2="110"/><line x1="112" y1="94" x2="112" y2="110"/><line x1="164" y1="94" x2="164" y2="110"/>
    <line x1="34" y1="110" x2="34" y2="126"/><line x1="90" y1="110" x2="90" y2="126"/><line x1="148" y1="110" x2="148" y2="126"/>
    <line x1="56" y1="126" x2="56" y2="142"/><line x1="112" y1="126" x2="112" y2="142"/><line x1="164" y1="126" x2="164" y2="142"/>
    <line x1="34" y1="142" x2="34" y2="158"/><line x1="90" y1="142" x2="90" y2="158"/><line x1="148" y1="142" x2="148" y2="158"/>
  </g>
  <!-- Forge hearth -->
  <path d="M14,218 L14,288 L118,288 L118,218 Q118,198 66,193 Q14,198 14,218 Z" fill="#3a1808" clip-path="url(#cc2)"/>
  <path d="M24,280 L24,234 Q24,216 66,213 Q108,216 108,234 L108,280 Z" fill="#180808" clip-path="url(#cc2)"/>
  <!-- Fire -->
  <g clip-path="url(#cc2)">
    <ellipse cx="66" cy="278" rx="28" ry="7" fill="#ff5800" opacity="0.95"/>
    <path d="M44,278 Q49,256 52,242 Q60,260 54,270 Q63,246 67,230 Q72,250 68,264 Q75,244 80,256 Q84,244 88,236 L90,278 Z" fill="#ff8818"/>
    <path d="M50,278 Q55,262 58,250 Q63,266 60,274 Q67,252 70,240 Q74,258 71,268 Q76,252 81,262 L84,278 Z" fill="#ffcc38" opacity="0.82"/>
    <ellipse cx="66" cy="275" rx="22" ry="5" fill="#ffee80" opacity="0.55"/>
  </g>
  <!-- Chimney flue -->
  <rect x="38" y="46" width="56" height="170" fill="#2a1006" clip-path="url(#cc2)"/>
  <rect x="32" y="46" width="68" height="9" fill="#3a1808" clip-path="url(#cc2)"/>
  <!-- Chimney smoke wisps -->
  <g fill="rgba(70,50,30,0.22)" clip-path="url(#cc2)">
    <ellipse cx="66" cy="37" rx="20" ry="7"/><ellipse cx="71" cy="26" rx="16" ry="6"/>
  </g>
  <!-- Hammer on forge edge -->
  <rect x="90" y="282" width="36" height="7" rx="2" fill="#6a4820" clip-path="url(#cc2)"/>
  <rect x="98" y="274" width="14" height="10" rx="2" fill="#8a8888" clip-path="url(#cc2)"/>
  <!-- Wall hooks with tools -->
  <g clip-path="url(#cc2)" fill="none" stroke="#6a4820" stroke-width="1.5">
    <line x1="216" y1="58" x2="216" y2="78"/><circle cx="216" cy="80" r="4" fill="#6a4820"/>
    <line x1="245" y1="58" x2="245" y2="78"/><circle cx="245" cy="80" r="4" fill="#6a4820"/>
    <line x1="274" y1="58" x2="274" y2="78"/><circle cx="274" cy="80" r="4" fill="#6a4820"/>
    <path d="M214,82 L214,110 L218,122 L220,110 L220,82" fill="#888880" stroke="none"/>
    <path d="M243,82 L241,100 Q241,108 245,110 Q249,108 249,100 L247,82" fill="#808880" stroke="none"/>
    <path d="M272,82 L270,106 L274,116 L278,106 L276,82" fill="#908878" stroke="none"/>
  </g>
  <!-- Back wall center -->
  <rect x="198" y="46" width="458" height="200" fill="#221408" clip-path="url(#cc2)"/>
  <g stroke="rgba(80,50,20,0.28)" stroke-width="1" clip-path="url(#cc2)" fill="none">
    <line x1="198" y1="82" x2="656" y2="82"/><line x1="198" y1="118" x2="656" y2="118"/>
    <line x1="198" y1="154" x2="656" y2="154"/><line x1="198" y1="190" x2="656" y2="190"/>
    <line x1="198" y1="226" x2="656" y2="226"/>
  </g>
  <!-- Right shelf wall -->
  <rect x="656" y="46" width="214" height="200" fill="#1e1208" clip-path="url(#cc2)"/>
  <!-- Shelf board 1 -->
  <rect x="661" y="82" width="204" height="9" rx="2" fill="#5a3c14" stroke="#7a5020" stroke-width="1" clip-path="url(#cc2)"/>
  <!-- Shelf 1 items -->
  <g clip-path="url(#cc2)">
    <circle cx="676" cy="70" r="10" fill="none" stroke="#a07828" stroke-width="3"/>
    <circle cx="676" cy="70" r="5" fill="#a07828"/>
    <g stroke="#a07828" stroke-width="1.8"><line x1="676" y1="58" x2="676" y2="62"/><line x1="676" y1="78" x2="676" y2="82"/><line x1="664" y1="70" x2="668" y2="70"/><line x1="684" y1="70" x2="688" y2="70"/></g>
    <rect x="696" y="60" width="13" height="22" rx="5" fill="rgba(80,130,88,0.6)" stroke="#3a6040" stroke-width="1.5"/>
    <rect x="713" y="62" width="11" height="20" rx="5" fill="rgba(90,100,140,0.6)" stroke="#405080" stroke-width="1.5"/>
    <rect x="728" y="58" width="15" height="24" rx="5" fill="rgba(130,80,40,0.5)" stroke="#804020" stroke-width="1.5"/>
    <rect x="747" y="62" width="11" height="20" rx="5" fill="rgba(80,130,88,0.55)" stroke="#3a6040" stroke-width="1.5"/>
    <rect x="762" y="60" width="13" height="22" rx="5" fill="rgba(90,90,130,0.6)" stroke="#404080" stroke-width="1.5"/>
    <rect x="780" y="62" width="11" height="20" rx="5" fill="rgba(130,80,40,0.5)" stroke="#804020" stroke-width="1.5"/>
    <rect x="796" y="58" width="15" height="24" rx="5" fill="rgba(80,130,88,0.5)" stroke="#3a6040" stroke-width="1.5"/>
    <rect x="816" y="60" width="13" height="22" rx="5" fill="rgba(90,90,130,0.55)" stroke="#404080" stroke-width="1.5"/>
    <rect x="834" y="58" width="13" height="24" rx="5" fill="rgba(130,80,40,0.5)" stroke="#804020" stroke-width="1.5"/>
    <rect x="851" y="60" width="11" height="20" rx="5" fill="rgba(80,130,88,0.5)" stroke="#3a6040" stroke-width="1.5"/>
  </g>
  <!-- Shelf board 2 -->
  <rect x="661" y="144" width="204" height="9" rx="2" fill="#5a3c14" stroke="#7a5020" stroke-width="1" clip-path="url(#cc2)"/>
  <!-- Shelf 2 items -->
  <g clip-path="url(#cc2)">
    <circle cx="678" cy="130" r="11" fill="none" stroke="#b09030" stroke-width="3"/>
    <circle cx="678" cy="130" r="5" fill="#b09030"/>
    <g stroke="#b09030" stroke-width="2.5"><line x1="678" y1="117" x2="678" y2="121"/><line x1="678" y1="139" x2="678" y2="144"/><line x1="665" y1="130" x2="669" y2="130"/><line x1="687" y1="130" x2="691" y2="130"/></g>
    <!-- Open scroll -->
    <rect x="698" y="122" width="38" height="22" rx="2" fill="#e8d8b8" stroke="#8a6030" stroke-width="1.5"/>
    <g stroke="rgba(80,50,20,0.5)" stroke-width="0.8" fill="none"><line x1="702" y1="128" x2="732" y2="128"/><line x1="702" y1="134" x2="732" y2="134"/><line x1="702" y1="140" x2="732" y2="140"/></g>
    <!-- Coiled spring -->
    <g stroke="#a09040" stroke-width="2" fill="none">
      <path d="M747,122 Q754,122 754,128 Q747,132 747,136 Q754,140 754,144"/>
      <path d="M756,122 Q763,122 763,128 Q756,132 756,136 Q763,140 763,144"/>
      <line x1="747" y1="122" x2="763" y2="122"/><line x1="747" y1="144" x2="763" y2="144"/>
    </g>
    <!-- Inkwell + quill -->
    <rect x="778" y="124" width="17" height="20" rx="4" fill="#181820" stroke="#404050" stroke-width="1.5"/>
    <ellipse cx="786" cy="124" rx="8" ry="3" fill="#282838" stroke="#404050" stroke-width="1"/>
    <path d="M791,112 Q806,100 812,92" fill="none" stroke="#d0c880" stroke-width="1.8" stroke-linecap="round"/>
    <path d="M791,112 L788,130" fill="none" stroke="#a09040" stroke-width="1.5" stroke-linecap="round"/>
    <path d="M791,112 Q798,106 807,97 Q807,103 802,108 Q799,113 791,112 Z" fill="#d8c870" opacity="0.8"/>
  </g>
  <!-- Hanging oil lamp center -->
  <g clip-path="url(#cc2)">
    <line x1="528" y1="14" x2="528" y2="50" stroke="#8a5a20" stroke-width="2"/>
    <rect x="516" y="50" width="24" height="8" rx="4" fill="#a07828" stroke="#806010" stroke-width="1"/>
    <path d="M508,58 L548,58 L552,80 L504,80 Z" fill="#c09030" stroke="#806010" stroke-width="1.5"/>
    <ellipse cx="528" cy="80" rx="24" ry="12" fill="#ffe870" opacity="0.9"/>
    <ellipse cx="528" cy="80" rx="15" ry="7" fill="#fff4a0"/>
    <ellipse cx="528" cy="80" rx="65" ry="38" fill="rgba(255,220,80,0.13)"/>
  </g>
  <!-- Workbench -->
  <rect x="136" y="218" width="506" height="74" rx="5" fill="#6a3c12" stroke="#8a5020" stroke-width="2" clip-path="url(#cc2)"/>
  <rect x="136" y="209" width="506" height="13" rx="3" fill="#8a5820" clip-path="url(#cc2)"/>
  <!-- Bench legs -->
  <rect x="152" y="292" width="13" height="58" fill="#5a3010" clip-path="url(#cc2)"/>
  <rect x="300" y="292" width="13" height="58" fill="#5a3010" clip-path="url(#cc2)"/>
  <rect x="455" y="292" width="13" height="58" fill="#5a3010" clip-path="url(#cc2)"/>
  <rect x="614" y="292" width="13" height="58" fill="#5a3010" clip-path="url(#cc2)"/>
  <!-- Bench items -->
  <g clip-path="url(#cc2)">
    <!-- Large main gear -->
    <circle cx="282" cy="196" r="44" fill="none" stroke="#c09830" stroke-width="6"/>
    <circle cx="282" cy="196" r="25" fill="none" stroke="#c09830" stroke-width="5"/>
    <circle cx="282" cy="196" r="8" fill="#c09830"/>
    <g stroke="#c09830" stroke-width="5">
      <line x1="282" y1="150" x2="282" y2="158"/><line x1="282" y1="234" x2="282" y2="242"/>
      <line x1="238" y1="196" x2="246" y2="196"/><line x1="318" y1="196" x2="326" y2="196"/>
      <line x1="251" y1="164" x2="257" y2="170"/><line x1="307" y1="220" x2="313" y2="226"/>
      <line x1="313" y1="164" x2="307" y2="170"/><line x1="251" y1="220" x2="257" y2="226"/>
    </g>
    <!-- Medium meshing gear -->
    <circle cx="342" cy="181" r="28" fill="none" stroke="#a07828" stroke-width="4.5"/>
    <circle cx="342" cy="181" r="15" fill="none" stroke="#a07828" stroke-width="4"/>
    <circle cx="342" cy="181" r="6" fill="#a07828"/>
    <g stroke="#a07828" stroke-width="4">
      <line x1="342" y1="151" x2="342" y2="158"/><line x1="342" y1="204" x2="342" y2="211"/>
      <line x1="312" y1="181" x2="319" y2="181"/><line x1="365" y1="181" x2="372" y2="181"/>
      <line x1="321" y1="160" x2="326" y2="165"/><line x1="358" y1="197" x2="363" y2="202"/>
    </g>
    <!-- Small gear -->
    <circle cx="242" cy="174" r="16" fill="none" stroke="#8a6820" stroke-width="3.5"/>
    <circle cx="242" cy="174" r="8" fill="none" stroke="#8a6820" stroke-width="3"/>
    <circle cx="242" cy="174" r="4" fill="#8a6820"/>
    <g stroke="#8a6820" stroke-width="3">
      <line x1="242" y1="156" x2="242" y2="160"/><line x1="242" y1="188" x2="242" y2="192"/>
      <line x1="224" y1="174" x2="228" y2="174"/><line x1="256" y1="174" x2="260" y2="174"/>
    </g>
    <!-- Open ledger -->
    <rect x="398" y="196" width="84" height="58" rx="2" fill="#e8d8b8" stroke="#8a6030" stroke-width="2"/>
    <line x1="440" y1="198" x2="440" y2="252" stroke="#8a6030" stroke-width="1.5"/>
    <g stroke="rgba(80,50,20,0.48)" stroke-width="0.8" fill="none">
      <line x1="402" y1="208" x2="438" y2="208"/><line x1="402" y1="216" x2="438" y2="216"/>
      <line x1="402" y1="224" x2="438" y2="224"/><line x1="402" y1="232" x2="438" y2="232"/>
      <line x1="402" y1="240" x2="438" y2="240"/><line x1="402" y1="248" x2="438" y2="248"/>
      <line x1="444" y1="208" x2="478" y2="208"/><line x1="444" y1="216" x2="478" y2="216"/>
      <line x1="444" y1="224" x2="478" y2="224"/><line x1="444" y1="232" x2="478" y2="232"/>
      <line x1="444" y1="240" x2="478" y2="240"/><line x1="444" y1="248" x2="478" y2="248"/>
    </g>
    <!-- Red debt line -->
    <line x1="444" y1="232" x2="478" y2="232" stroke="#b81818" stroke-width="2.5"/>
    <!-- Inkwell on bench -->
    <rect x="492" y="210" width="16" height="18" rx="4" fill="#181820" stroke="#404050" stroke-width="1.5"/>
    <!-- Half-assembled clock face -->
    <circle cx="183" cy="200" r="28" fill="#f0e6d0" stroke="#7a5820" stroke-width="3"/>
    <circle cx="183" cy="200" r="24" fill="#ede2c8"/>
    <circle cx="183" cy="200" r="3" fill="#5a3810"/>
    <g stroke="#5a3810" stroke-width="1.8">
      <line x1="183" y1="172" x2="183" y2="178"/><line x1="183" y1="222" x2="183" y2="228"/>
      <line x1="155" y1="200" x2="161" y2="200"/><line x1="205" y1="200" x2="211" y2="200"/>
      <line x1="163" y1="180" x2="167" y2="184"/><line x1="199" y1="216" x2="203" y2="220"/>
      <line x1="199" y1="180" x2="195" y2="184"/><line x1="163" y1="216" x2="167" y2="220"/>
    </g>
    <line x1="183" y1="200" x2="183" y2="180" stroke="#3a2008" stroke-width="2.5" stroke-linecap="round"/>
    <line x1="183" y1="200" x2="198" y2="194" stroke="#3a2008" stroke-width="2" stroke-linecap="round"/>
    <!-- Loose spring nearby -->
    <g stroke="#a09040" stroke-width="1.8" fill="none">
      <path d="M155,218 Q161,218 161,223 Q155,226 155,229 Q161,232 161,236"/>
      <path d="M163,218 Q169,218 169,223 Q163,226 163,229 Q169,232 169,236"/>
      <line x1="155" y1="218" x2="169" y2="218"/><line x1="155" y1="236" x2="169" y2="236"/>
    </g>
  </g>
  <!-- Floor -->
  <rect x="10" y="292" width="860" height="58" fill="#3a2010" clip-path="url(#cc2)"/>
  <g stroke="rgba(80,50,20,0.38)" stroke-width="1" clip-path="url(#cc2)" fill="none">
    <line x1="10" y1="308" x2="870" y2="308"/><line x1="10" y1="326" x2="870" y2="326"/><line x1="10" y1="344" x2="870" y2="344"/>
    <line x1="80" y1="292" x2="80" y2="350"/><line x1="180" y1="292" x2="180" y2="350"/>
    <line x1="280" y1="292" x2="280" y2="350"/><line x1="380" y1="292" x2="380" y2="350"/>
    <line x1="480" y1="292" x2="480" y2="350"/><line x1="580" y1="292" x2="580" y2="350"/>
    <line x1="680" y1="292" x2="680" y2="350"/><line x1="780" y1="292" x2="780" y2="350"/>
  </g>
  <!-- Text card -->
  <rect x="598" y="220" width="272" height="122" rx="12" fill="rgba(12,6,2,0.9)"/>
  <rect x="602" y="224" width="264" height="114" rx="10" fill="none" stroke="rgba(200,150,50,0.5)" stroke-width="1.5"/>
  <text x="734" y="252" font-size="18" font-family="Georgia,serif" fill="#f0d888" font-weight="700" text-anchor="middle">Capítulo II</text>
  <text x="734" y="275" font-size="12" font-family="Georgia,serif" fill="#c8a450" text-anchor="middle">El Taller y la Deuda</text>
  <text x="734" y="296" font-size="10" font-family="Georgia,serif" fill="#988040" text-anchor="middle" font-style="italic">«Las piezas hablan mejor</text>
  <text x="734" y="311" font-size="10" font-family="Georgia,serif" fill="#988040" text-anchor="middle" font-style="italic">que los testigos»</text>
  <text x="734" y="333" font-size="9" font-family="Georgia,serif" fill="#746030" text-anchor="middle">Taller Bercial · Otoño 1912</text>
  <!-- Border -->
  <rect x="10" y="10" width="860" height="340" rx="14" fill="none" stroke="#986a22" stroke-width="2.5"/>
  <rect x="14" y="14" width="852" height="332" rx="12" fill="none" stroke="rgba(200,155,55,0.35)" stroke-width="1.2"/>
</svg>
