<svg xmlns="http://www.w3.org/2000/svg" viewBox="0 0 880 360" role="img" aria-label="Capitulo II - El Taller y la Deuda">
  <defs>
    <linearGradient id="room2" x1="0" y1="0" x2="0" y2="1"><stop offset="0%" stop-color="#1a0e06"/><stop offset="100%" stop-color="#2e1c0a"/></linearGradient>
    <radialGradient id="lamp2" cx="70%" cy="30%" r="55%"><stop offset="0%" stop-color="#ffe090" stop-opacity="0.75"/><stop offset="100%" stop-color="#ffe090" stop-opacity="0"/></radialGradient>
    <clipPath id="cc2"><rect x="10" y="10" width="860" height="340" rx="15"/></clipPath>
  </defs>
  <rect width="880" height="360" rx="18" fill="#0e0804"/>
  <rect x="10" y="10" width="860" height="340" rx="14" fill="url(#room2)"/>
  <ellipse cx="560" cy="95" rx="220" ry="160" fill="url(#lamp2)" clip-path="url(#cc2)"/>
  <rect x="10" y="10" width="860" height="38" fill="#120a04" clip-path="url(#cc2)"/>
  <g stroke="#5a3a18" stroke-width="2" clip-path="url(#cc2)">
    <line x1="80" y1="14" x2="80" y2="48"/><line x1="140" y1="14" x2="140" y2="52"/><line x1="200" y1="14" x2="200" y2="44"/>
    <line x1="260" y1="14" x2="260" y2="50"/><line x1="320" y1="14" x2="320" y2="46"/>
    <ellipse cx="80" cy="54" rx="8" ry="6" fill="none" stroke="#8a5c28" stroke-width="2"/>
    <path d="M136,52 L144,52 L145,62 L135,62 Z" fill="#7a4a1c" stroke="#8a5c28" stroke-width="1.5"/>
    <path d="M195,44 L205,44 L210,56 L190,56 Z" fill="#6a3a14" stroke="#8a5c28" stroke-width="1.5"/>
  </g>
  <rect x="10" y="48" width="520" height="220" fill="#3a2210" clip-path="url(#cc2)"/>
  <g stroke="rgba(80,50,20,0.35)" stroke-width="1" clip-path="url(#cc2)">
    <line x1="10" y1="78" x2="530" y2="78"/><line x1="10" y1="108" x2="530" y2="108"/><line x1="10" y1="138" x2="530" y2="138"/><line x1="10" y1="168" x2="530" y2="168"/><line x1="10" y1="198" x2="530" y2="198"/>
    <line x1="100" y1="48" x2="100" y2="268"/><line x1="190" y1="48" x2="190" y2="268"/><line x1="280" y1="48" x2="280" y2="268"/><line x1="370" y1="48" x2="370" y2="268"/><line x1="460" y1="48" x2="460" y2="268"/>
  </g>
  <rect x="388" y="62" width="120" height="90" rx="8" fill="#0a0e18" stroke="#5a3a18" stroke-width="3" clip-path="url(#cc2)"/>
  <line x1="448" y1="62" x2="448" y2="152" stroke="#5a3a18" stroke-width="2" clip-path="url(#cc2)"/>
  <line x1="388" y1="107" x2="508" y2="107" stroke="#5a3a18" stroke-width="2" clip-path="url(#cc2)"/>
  <circle cx="426" cy="88" r="18" fill="#d8d0a8" clip-path="url(#cc2)"/>
  <circle cx="434" cy="84" r="14" fill="#0a0e18" clip-path="url(#cc2)"/>
  <rect x="10" y="268" width="860" height="82" fill="#3a2010" clip-path="url(#cc2)"/>
  <g stroke="rgba(80,50,20,0.4)" stroke-width="1" clip-path="url(#cc2)">
    <line x1="10" y1="285" x2="870" y2="285"/><line x1="10" y1="310" x2="870" y2="310"/>
    <line x1="80" y1="268" x2="80" y2="350"/><line x1="180" y1="268" x2="180" y2="350"/><line x1="280" y1="268" x2="280" y2="350"/><line x1="380" y1="268" x2="380" y2="350"/><line x1="480" y1="268" x2="480" y2="350"/>
  </g>
  <rect x="30" y="200" width="480" height="70" rx="5" fill="#6a3c12" stroke="#8a5020" stroke-width="2" clip-path="url(#cc2)"/>
  <rect x="30" y="190" width="480" height="14" rx="3" fill="#8a5820" clip-path="url(#cc2)"/>
  <rect x="50" y="270" width="12" height="70" fill="#5a3010" clip-path="url(#cc2)"/>
  <rect x="180" y="270" width="12" height="70" fill="#5a3010" clip-path="url(#cc2)"/>
  <rect x="330" y="270" width="12" height="70" fill="#5a3010" clip-path="url(#cc2)"/>
  <rect x="470" y="270" width="12" height="70" fill="#5a3010" clip-path="url(#cc2)"/>
  <g clip-path="url(#cc2)">
    <circle cx="120" cy="178" r="32" fill="none" stroke="#c09830" stroke-width="5"/>
    <circle cx="120" cy="178" r="18" fill="none" stroke="#c09830" stroke-width="4"/>
    <circle cx="120" cy="178" r="6" fill="#c09830"/>
    <g stroke="#c09830" stroke-width="4"><line x1="120" y1="145" x2="120" y2="152"/><line x1="120" y1="204" x2="120" y2="211"/><line x1="87" y1="178" x2="94" y2="178"/><line x1="146" y1="178" x2="153" y2="178"/><line x1="97" y1="154" x2="102" y2="159"/><line x1="138" y1="196" x2="143" y2="201"/><line x1="143" y1="154" x2="138" y2="159"/><line x1="97" y1="196" x2="102" y2="201"/></g>
    <circle cx="190" cy="186" r="22" fill="none" stroke="#a07828" stroke-width="4"/>
    <circle cx="190" cy="186" r="12" fill="none" stroke="#a07828" stroke-width="3"/>
    <circle cx="190" cy="186" r="5" fill="#a07828"/>
    <g stroke="#a07828" stroke-width="3"><line x1="190" y1="163" x2="190" y2="169"/><line x1="190" y1="203" x2="190" y2="209"/><line x1="167" y1="186" x2="173" y2="186"/><line x1="207" y1="186" x2="213" y2="186"/></g>
    <circle cx="258" cy="192" r="14" fill="none" stroke="#8a6820" stroke-width="3"/>
    <circle cx="316" cy="185" r="18" fill="none" stroke="#b08828" stroke-width="3.5"/>
    <rect x="58" y="156" width="72" height="52" rx="3" fill="#e8d8b8" stroke="#8a6030" stroke-width="2"/>
    <line x1="94" y1="158" x2="94" y2="206" stroke="#8a6030" stroke-width="1.5"/>
    <g stroke="rgba(80,50,20,0.5)" stroke-width="0.8"><line x1="62" y1="168" x2="92" y2="168"/><line x1="62" y1="178" x2="92" y2="178"/><line x1="62" y1="188" x2="92" y2="188"/><line x1="62" y1="198" x2="92" y2="198"/><line x1="96" y1="168" x2="126" y2="168"/><line x1="96" y1="178" x2="126" y2="178"/><line x1="96" y1="188" x2="126" y2="188"/><line x1="96" y1="198" x2="126" y2="198"/></g>
    <line x1="96" y1="183" x2="120" y2="183" stroke="#a02010" stroke-width="2"/>
    <rect x="452" y="172" width="18" height="26" rx="4" fill="#b89020" stroke="#806010" stroke-width="1.5" clip-path="url(#cc2)"/>
  </g>
  <g clip-path="url(#cc2)">
    <line x1="560" y1="10" x2="560" y2="55" stroke="#8a5a20" stroke-width="2"/>
    <path d="M540,55 L580,55 L585,90 L535,90 Z" fill="#b09030" stroke="#806010" stroke-width="1.5"/>
    <ellipse cx="560" cy="90" rx="20" ry="12" fill="rgba(255,220,100,0.85)"/>
  </g>
  <rect x="600" y="230" width="268" height="118" rx="12" fill="rgba(12,6,2,0.88)"/>
  <rect x="604" y="234" width="260" height="110" rx="10" fill="none" stroke="rgba(200,150,50,0.5)" stroke-width="1.2"/>
  <text x="734" y="261" font-size="18" font-family="Georgia,serif" fill="#f0d888" font-weight="700" text-anchor="middle">Capítulo II</text>
  <text x="734" y="284" font-size="12" font-family="Georgia,serif" fill="#c8a450" text-anchor="middle">El Taller y la Deuda</text>
  <text x="734" y="306" font-size="10" font-family="Georgia,serif" fill="#988040" text-anchor="middle" font-style="italic">«Las piezas hablan mejor</text>
  <text x="734" y="321" font-size="10" font-family="Georgia,serif" fill="#988040" text-anchor="middle" font-style="italic">que los testigos»</text>
  <text x="734" y="341" font-size="9" font-family="Georgia,serif" fill="#746030" text-anchor="middle">Taller Bercial · Otoño 1912</text>
  <rect x="10" y="10" width="860" height="340" rx="14" fill="none" stroke="#986a22" stroke-width="2.5"/>
  <rect x="14" y="14" width="852" height="332" rx="12" fill="none" stroke="rgba(200,155,55,0.35)" stroke-width="1.2"/>
</svg>