<svg xmlns="http://www.w3.org/2000/svg" viewBox="0 0 880 360" role="img" aria-label="Capitulo I – La Llegada a San Teodoro">
  <defs>
    <linearGradient id="sky1" x1="0" y1="0" x2="0" y2="1"><stop offset="0%" stop-color="#0e1a2c"/><stop offset="65%" stop-color="#1e3250"/><stop offset="100%" stop-color="#2e4868"/></linearGradient>
    <linearGradient id="grd1" x1="0" y1="0" x2="0" y2="1"><stop offset="0%" stop-color="#9a8c72"/><stop offset="100%" stop-color="#7a6c58"/></linearGradient>
    <radialGradient id="cg1" cx="50%" cy="50%" r="50%"><stop offset="0%" stop-color="#ffe898" stop-opacity="0.9"/><stop offset="100%" stop-color="#ffd060" stop-opacity="0"/></radialGradient>
    <radialGradient id="lg1" cx="50%" cy="50%" r="50%"><stop offset="0%" stop-color="#ffd070" stop-opacity="0.85"/><stop offset="100%" stop-color="#ffd070" stop-opacity="0"/></radialGradient>
    <linearGradient id="fog1" x1="0" y1="0" x2="0" y2="1"><stop offset="0%" stop-color="rgba(150,175,200,0)"/><stop offset="55%" stop-color="rgba(150,175,200,0.45)"/><stop offset="100%" stop-color="rgba(120,155,185,0.2)"/></linearGradient>
    <clipPath id="cc1"><rect x="10" y="10" width="860" height="340" rx="15"/></clipPath>
  </defs>
  <rect width="880" height="360" rx="18" fill="#0e0a06"/>
  <rect x="10" y="10" width="860" height="340" rx="14" fill="url(#sky1)"/>
  <g fill="rgba(255,255,255,0.7)" clip-path="url(#cc1)"><circle cx="60" cy="36" r="1.1"/><circle cx="125" cy="22" r="1.3"/><circle cx="200" cy="48" r="1"/><circle cx="252" cy="28" r="1.2"/><circle cx="50" cy="72" r="0.9"/><circle cx="158" cy="65" r="1"/><circle cx="660" cy="26" r="1.2"/><circle cx="735" cy="46" r="1"/><circle cx="795" cy="20" r="1.3"/><circle cx="825" cy="58" r="1"/><circle cx="500" cy="38" r="1.1"/><circle cx="575" cy="52" r="0.9"/></g>
  <g fill="#0c1e30" clip-path="url(#cc1)"><rect x="10" y="148" width="108" height="202"/><rect x="22" y="126" width="56" height="28"/><rect x="118" y="158" width="78" height="192"/><rect x="130" y="135" width="42" height="28"/><rect x="196" y="166" width="62" height="184"/><rect x="618" y="152" width="88" height="198"/><rect x="706" y="160" width="72" height="190"/><rect x="778" y="148" width="62" height="202"/><rect x="832" y="168" width="38" height="182"/></g>
  <rect x="10" y="228" width="860" height="122" fill="url(#grd1)" clip-path="url(#cc1)"/>
  <g stroke="rgba(0,0,0,0.2)" stroke-width="0.7" fill="none" clip-path="url(#cc1)"><line x1="10" y1="240" x2="870" y2="240"/><line x1="10" y1="254" x2="870" y2="254"/><line x1="10" y1="268" x2="870" y2="268"/><line x1="10" y1="282" x2="870" y2="282"/><path d="M34,240v14 M58,254v14 M82,240v14 M106,254v14 M130,240v14 M154,254v14 M178,240v14 M202,254v14 M226,240v14 M250,254v14 M274,240v14 M298,254v14 M322,240v14 M346,254v14 M370,240v14 M394,254v14 M418,240v14 M442,254v14 M466,240v14 M490,254v14 M514,240v14 M538,254v14 M562,240v14 M586,254v14 M610,240v14 M634,254v14 M658,240v14 M682,254v14 M706,240v14 M730,254v14 M754,240v14 M778,254v14 M802,240v14 M826,254v14 M850,240v14"/></g>
  <g clip-path="url(#cc1)">
    <rect x="394" y="106" width="92" height="154" fill="#26180e"/>
    <g stroke="rgba(80,58,35,0.4)" stroke-width="1"><line x1="394" y1="124" x2="486" y2="124"/><line x1="394" y1="142" x2="486" y2="142"/><line x1="394" y1="160" x2="486" y2="160"/><line x1="394" y1="178" x2="486" y2="178"/><line x1="394" y1="196" x2="486" y2="196"/><line x1="394" y1="214" x2="486" y2="214"/></g>
    <rect x="386" y="102" width="108" height="8" fill="#4a3620"/>
    <rect x="382" y="70" width="116" height="36" fill="#301e10"/>
    <rect x="378" y="66" width="124" height="8" fill="#4a3620"/>
    <g fill="#1c100a"><rect x="378" y="48" width="13" height="20"/><rect x="399" y="48" width="13" height="20"/><rect x="420" y="48" width="13" height="20"/><rect x="441" y="48" width="13" height="20"/><rect x="462" y="48" width="13" height="20"/><rect x="483" y="48" width="13" height="20"/></g>
    <polygon points="440,16 504,48 376,48" fill="#14080a"/>
    <circle cx="440" cy="142" r="54" fill="url(#cg1)"/>
    <circle cx="440" cy="142" r="40" fill="#f0e4c2" stroke="#c09010" stroke-width="4"/>
    <circle cx="440" cy="142" r="36" fill="none" stroke="rgba(150,110,15,0.5)" stroke-width="1.5"/>
    <g stroke="#806015" stroke-width="2.5"><line x1="440" y1="104" x2="440" y2="111"/><line x1="477" y1="115" x2="473" y2="121"/><line x1="480" y1="142" x2="473" y2="142"/><line x1="477" y1="169" x2="473" y2="163"/><line x1="440" y1="180" x2="440" y2="173"/><line x1="403" y1="169" x2="407" y2="163"/><line x1="400" y1="142" x2="407" y2="142"/><line x1="403" y1="115" x2="407" y2="121"/></g>
    <g font-family="Georgia,serif" font-size="11" fill="#3a2406" text-anchor="middle" font-weight="700"><text x="440" y="111">XII</text><text x="476" y="126">III</text><text x="440" y="180">VI</text><text x="404" y="126">IX</text></g>
    <line x1="440" y1="142" x2="440" y2="117" stroke="#200e04" stroke-width="3.5" stroke-linecap="round"/>
    <line x1="440" y1="142" x2="462" y2="156" stroke="#200e04" stroke-width="2.5" stroke-linecap="round"/>
    <circle cx="440" cy="142" r="4" fill="#3a2406"/>
    <rect x="420" y="166" width="15" height="22" rx="7 7 0 0" fill="rgba(255,200,80,0.45)" stroke="#58380e" stroke-width="1.5"/>
    <rect x="445" y="166" width="15" height="22" rx="7 7 0 0" fill="rgba(70,110,155,0.35)" stroke="#58380e" stroke-width="1.5"/>
    <rect x="422" y="210" width="36" height="50" rx="18 18 0 0" fill="rgba(175,135,65,0.3)" stroke="#58380e" stroke-width="2"/>
  </g>
  <g clip-path="url(#cc1)">
    <rect x="262" y="194" width="7" height="78" fill="#48381c"/>
    <path d="M269,205 Q288,192 290,213" fill="none" stroke="#48381c" stroke-width="5" stroke-linecap="round"/>
    <rect x="282" y="210" width="20" height="24" rx="4" fill="#b0900a" stroke="#7a5e0a" stroke-width="1.5"/>
    <ellipse cx="292" cy="230" rx="34" ry="32" fill="url(#lg1)"/>
    <circle cx="292" cy="222" r="8" fill="rgba(255,215,80,0.9)"/>
  </g>
  <g clip-path="url(#cc1)">
    <rect x="611" y="194" width="7" height="78" fill="#48381c"/>
    <path d="M611,205 Q592,192 590,213" fill="none" stroke="#48381c" stroke-width="5" stroke-linecap="round"/>
    <rect x="578" y="210" width="20" height="24" rx="4" fill="#b0900a" stroke="#7a5e0a" stroke-width="1.5"/>
    <ellipse cx="588" cy="230" rx="34" ry="32" fill="url(#lg1)"/>
    <circle cx="588" cy="222" r="8" fill="rgba(255,215,80,0.9)"/>
  </g>
  <rect x="10" y="198" width="860" height="88" fill="url(#fog1)" clip-path="url(#cc1)" opacity="0.72"/>
  <ellipse cx="440" cy="232" rx="285" ry="50" fill="rgba(135,162,190,0.26)" clip-path="url(#cc1)"/>
  <rect x="592" y="244" width="264" height="112" rx="12" fill="rgba(8,16,28,0.86)"/>
  <rect x="596" y="248" width="256" height="104" rx="10" fill="none" stroke="rgba(200,155,55,0.5)" stroke-width="1.2"/>
  <text x="724" y="276" font-size="19" font-family="Georgia,serif" fill="#f0d888" font-weight="700" text-anchor="middle">Capítulo I</text>
  <text x="724" y="299" font-size="13" font-family="Georgia,serif" fill="#c8a455" text-anchor="middle">La Llegada a San Teodoro</text>
  <text x="724" y="322" font-size="10" font-family="Georgia,serif" fill="#988045" text-anchor="middle" font-style="italic">«La torre empieza a mentir»</text>
  <text x="724" y="342" font-size="9" font-family="Georgia,serif" fill="#746035" text-anchor="middle">Plaza del Reloj · Otoño 1912</text>
  <rect x="10" y="10" width="860" height="340" rx="14" fill="none" stroke="#986a22" stroke-width="2.5"/>
  <rect x="14" y="14" width="852" height="332" rx="12" fill="none" stroke="rgba(200,155,55,0.35)" stroke-width="1.2"/>
</svg>