<svg xmlns="http://www.w3.org/2000/svg" viewBox="0 0 880 360" role="img" aria-label="Capitulo IV - El Campanario Oculto">
  <defs>
    <linearGradient id="shaft4" x1="0" y1="0" x2="0" y2="1"><stop offset="0%" stop-color="#0a0c14"/><stop offset="35%" stop-color="#141820"/><stop offset="100%" stop-color="#1e2230"/></linearGradient>
    <radialGradient id="bellglow" cx="50%" cy="18%" r="42%"><stop offset="0%" stop-color="#c09030" stop-opacity="0.65"/><stop offset="100%" stop-color="#c09030" stop-opacity="0"/></radialGradient>
    <radialGradient id="trapdoor" cx="38%" cy="70%" r="40%"><stop offset="0%" stop-color="rgba(150,120,60,0.3)"/><stop offset="100%" stop-color="rgba(150,120,60,0)"/></radialGradient>
    <clipPath id="cc4"><rect x="10" y="10" width="860" height="340" rx="15"/></clipPath>
  </defs>
  <rect width="880" height="360" rx="18" fill="#060810"/>
  <rect x="10" y="10" width="860" height="340" rx="14" fill="url(#shaft4)"/>
  <ellipse cx="440" cy="62" rx="180" ry="120" fill="url(#bellglow)" clip-path="url(#cc4)"/>
  <path d="M10,350 L180,10 L10,10 Z" fill="#2a2018" clip-path="url(#cc4)"/>
  <path d="M870,350 L700,10 L870,10 Z" fill="#2a2018" clip-path="url(#cc4)"/>
  <rect x="180" y="10" width="520" height="340" fill="#161820" clip-path="url(#cc4)"/>
  <g stroke="rgba(70,60,40,0.5)" stroke-width="1" clip-path="url(#cc4)">
    <line x1="10" y1="80" x2="175" y2="52"/><line x1="10" y1="130" x2="178" y2="90"/><line x1="10" y1="180" x2="180" y2="128"/><line x1="10" y1="230" x2="180" y2="168"/><line x1="10" y1="280" x2="180" y2="210"/><line x1="10" y1="330" x2="180" y2="254"/>
    <line x1="60" y1="10" x2="60" y2="350"/><line x1="110" y1="10" x2="115" y2="350"/><line x1="150" y1="10" x2="158" y2="350"/>
    <line x1="870" y1="80" x2="705" y2="52"/><line x1="870" y1="130" x2="702" y2="90"/><line x1="870" y1="180" x2="700" y2="128"/><line x1="870" y1="230" x2="700" y2="168"/><line x1="870" y1="280" x2="700" y2="210"/><line x1="870" y1="330" x2="700" y2="254"/>
    <line x1="820" y1="10" x2="820" y2="350"/><line x1="770" y1="10" x2="765" y2="350"/><line x1="730" y1="10" x2="722" y2="350"/>
  </g>
  <path d="M320,10 L560,10 L650,350 L230,350 Z" fill="#0c0e18" clip-path="url(#cc4)"/>
  <ellipse cx="440" cy="30" rx="80" ry="25" fill="rgba(100,120,160,0.5)" clip-path="url(#cc4)"/>
  <g clip-path="url(#cc4)">
    <path d="M395,28 Q400,16 440,14 Q480,16 485,28 Q490,50 485,68 Q465,82 440,84 Q415,82 395,68 Q390,50 395,28 Z" fill="#8a6820"/>
    <path d="M400,30 Q405,20 440,18 Q455,20 465,28 Q455,24 440,22 Q425,24 410,32 Z" fill="rgba(255,230,130,0.3)"/>
    <line x1="440" y1="60" x2="440" y2="80" stroke="#6a4810" stroke-width="4"/>
    <circle cx="440" cy="83" r="7" fill="#6a4810"/>
    <rect x="360" y="10" width="160" height="18" rx="4" fill="#5a4010"/>
    <rect x="430" y="10" width="20" height="40" fill="#5a4010"/>
  </g>
  <path d="M440,88 Q445,120 438,155 Q444,188 437,225 Q443,260 440,295" fill="none" stroke="#8a6030" stroke-width="5" stroke-linecap="round" clip-path="url(#cc4)"/>
  <g clip-path="url(#cc4)">
    <rect x="230" y="300" width="420" height="50" fill="#3a2810"/>
    <g stroke="rgba(60,40,15,0.5)" stroke-width="1"><line x1="230" y1="315" x2="650" y2="315"/><line x1="230" y1="330" x2="650" y2="330"/><line x1="260" y1="300" x2="260" y2="350"/><line x1="310" y1="300" x2="310" y2="350"/><line x1="370" y1="300" x2="370" y2="350"/><line x1="440" y1="300" x2="440" y2="350"/><line x1="510" y1="300" x2="510" y2="350"/><line x1="570" y1="300" x2="570" y2="350"/><line x1="620" y1="300" x2="620" y2="350"/></g>
  </g>
  <g clip-path="url(#cc4)">
    <rect x="162" y="175" width="55" height="80" rx="4" fill="#0a0c10" stroke="#4a3818" stroke-width="2"/>
    <g fill="#2a1e0e" stroke="#4a3010" stroke-width="1">
      <rect x="166" y="240" width="47" height="10"/><rect x="170" y="228" width="43" height="10"/>
      <rect x="174" y="216" width="39" height="10"/><rect x="178" y="204" width="35" height="10"/>
      <rect x="182" y="192" width="31" height="10"/><rect x="186" y="180" width="27" height="10"/>
    </g>
    <text x="190" y="270" font-size="8" font-family="Georgia,serif" fill="#a07838" text-anchor="middle" font-style="italic">Acceso oculto</text>
  </g>
  <g clip-path="url(#cc4)">
    <rect x="340" y="292" width="90" height="52" rx="3" fill="#5a3c10" stroke="#8a5c1e" stroke-width="2"/>
    <rect x="340" y="292" width="90" height="8" rx="2" fill="#7a5018"/>
    <circle cx="415" cy="322" r="7" fill="none" stroke="#a07820" stroke-width="2.5"/>
    <rect x="342" y="302" width="86" height="40" fill="url(#trapdoor)"/>
    <text x="385" y="328" font-size="9" font-family="Georgia,serif" fill="rgba(180,140,60,0.7)" text-anchor="middle">Trampilla</text>
  </g>
  <g clip-path="url(#cc4)">
    <circle cx="740" cy="175" r="35" fill="none" stroke="#8a6820" stroke-width="4"/>
    <circle cx="740" cy="175" r="20" fill="none" stroke="#7a5818" stroke-width="3"/>
    <circle cx="740" cy="175" r="8" fill="#7a5818"/>
    <g stroke="#8a6820" stroke-width="3.5"><line x1="740" y1="138" x2="740" y2="146"/><line x1="740" y1="204" x2="740" y2="212"/><line x1="703" y1="175" x2="711" y2="175"/><line x1="769" y1="175" x2="777" y2="175"/><line x1="715" y1="150" x2="721" y2="156"/><line x1="759" y1="194" x2="765" y2="200"/><line x1="765" y1="150" x2="759" y2="156"/><line x1="715" y1="194" x2="721" y2="200"/></g>
    <path d="M740,140 Q745,110 740,80 Q745,50 742,20" fill="none" stroke="#6a4810" stroke-width="3" stroke-dasharray="5 4"/>
  </g>
  <g stroke="rgba(200,190,170,0.3)" stroke-width="0.8" clip-path="url(#cc4)">
    <line x1="660" y1="10" x2="690" y2="50"/><line x1="690" y1="10" x2="660" y2="50"/>
    <ellipse cx="675" cy="30" rx="18" ry="8" fill="none"/>
    <ellipse cx="675" cy="30" rx="10" ry="4" fill="none"/>
  </g>
  <rect x="600" y="238" width="268" height="118" rx="12" fill="rgba(6,8,18,0.9)"/>
  <rect x="604" y="242" width="260" height="110" rx="10" fill="none" stroke="rgba(180,140,60,0.5)" stroke-width="1.2"/>
  <text x="734" y="270" font-size="18" font-family="Georgia,serif" fill="#f0d888" font-weight="700" text-anchor="middle">Capítulo IV</text>
  <text x="734" y="293" font-size="12" font-family="Georgia,serif" fill="#c8a450" text-anchor="middle">El Campanario Oculto</text>
  <text x="734" y="314" font-size="10" font-family="Georgia,serif" fill="#988040" text-anchor="middle" font-style="italic">«La escalera borrada</text>
  <text x="734" y="329" font-size="10" font-family="Georgia,serif" fill="#988040" text-anchor="middle" font-style="italic">del plano oficial»</text>
  <text x="734" y="348" font-size="9" font-family="Georgia,serif" fill="#746030" text-anchor="middle">Torre del Reloj · Otoño 1912</text>
  <rect x="10" y="10" width="860" height="340" rx="14" fill="none" stroke="#605028" stroke-width="2.5"/>
  <rect x="14" y="14" width="852" height="332" rx="12" fill="none" stroke="rgba(180,140,60,0.35)" stroke-width="1.2"/>
</svg>