<svg xmlns="http://www.w3.org/2000/svg" viewBox="0 0 880 360" role="img" aria-label="Capitulo V - Niebla sobre Valdeluna">
  <defs>
    <linearGradient id="night5" x1="0" y1="0" x2="0" y2="1"><stop offset="0%" stop-color="#080e16"/><stop offset="55%" stop-color="#101828"/><stop offset="100%" stop-color="#18202e"/></linearGradient>
    <radialGradient id="fog5a" cx="30%" cy="60%" r="60%"><stop offset="0%" stop-color="rgba(150,165,185,0.55)"/><stop offset="100%" stop-color="rgba(120,145,170,0)"/></radialGradient>
    <radialGradient id="fog5b" cx="70%" cy="55%" r="55%"><stop offset="0%" stop-color="rgba(130,150,175,0.45)"/><stop offset="100%" stop-color="rgba(110,135,165,0)"/></radialGradient>
    <radialGradient id="lamp5" cx="50%" cy="50%" r="50%"><stop offset="0%" stop-color="#ffd878" stop-opacity="0.9"/><stop offset="100%" stop-color="#ffd878" stop-opacity="0"/></radialGradient>
    <linearGradient id="steam5" x1="0" y1="1" x2="0" y2="0"><stop offset="0%" stop-color="rgba(180,185,195,0.7)"/><stop offset="100%" stop-color="rgba(180,185,195,0)"/></linearGradient>
    <clipPath id="cc5"><rect x="10" y="10" width="860" height="340" rx="15"/></clipPath>
  </defs>
  <rect width="880" height="360" rx="18" fill="#040810"/>
  <rect x="10" y="10" width="860" height="340" rx="14" fill="url(#night5)"/>
  <g fill="rgba(255,255,255,0.5)" clip-path="url(#cc5)">
    <circle cx="80" cy="30" r="1"/><circle cx="160" cy="22" r="1.2"/><circle cx="680" cy="26" r="1"/><circle cx="780" cy="38" r="1.2"/><circle cx="840" cy="20" r="1"/>
  </g>
  <path d="M10,150 Q180,90 300,120 Q450,80 550,115 Q680,75 800,105 Q840,115 870,100 L870,180 L10,180 Z" fill="#0e1820" clip-path="url(#cc5)"/>
  <rect x="10" y="245" width="860" height="105" fill="#1a1610" clip-path="url(#cc5)"/>
  <g stroke="rgba(50,40,20,0.5)" stroke-width="1" clip-path="url(#cc5)">
    <line x1="10" y1="262" x2="870" y2="262"/><line x1="10" y1="280" x2="870" y2="280"/><line x1="10" y1="298" x2="870" y2="298"/>
    <line x1="80" y1="245" x2="80" y2="350"/><line x1="160" y1="245" x2="160" y2="350"/><line x1="240" y1="245" x2="240" y2="350"/><line x1="320" y1="245" x2="320" y2="350"/><line x1="400" y1="245" x2="400" y2="350"/><line x1="480" y1="245" x2="480" y2="350"/><line x1="560" y1="245" x2="560" y2="350"/><line x1="640" y1="245" x2="640" y2="350"/><line x1="720" y1="245" x2="720" y2="350"/><line x1="800" y1="245" x2="800" y2="350"/>
  </g>
  <g clip-path="url(#cc5)">
    <line x1="10" y1="244" x2="870" y2="244" stroke="#6a5a30" stroke-width="5"/>
    <line x1="10" y1="256" x2="870" y2="256" stroke="#6a5a30" stroke-width="5"/>
    <g stroke="#5a4820" stroke-width="3">
      <line x1="30" y1="240" x2="30" y2="260"/><line x1="60" y1="240" x2="60" y2="260"/><line x1="90" y1="240" x2="90" y2="260"/><line x1="120" y1="240" x2="120" y2="260"/><line x1="150" y1="240" x2="150" y2="260"/><line x1="180" y1="240" x2="180" y2="260"/><line x1="210" y1="240" x2="210" y2="260"/><line x1="240" y1="240" x2="240" y2="260"/><line x1="270" y1="240" x2="270" y2="260"/><line x1="300" y1="240" x2="300" y2="260"/><line x1="330" y1="240" x2="330" y2="260"/><line x1="360" y1="240" x2="360" y2="260"/><line x1="390" y1="240" x2="390" y2="260"/><line x1="420" y1="240" x2="420" y2="260"/><line x1="450" y1="240" x2="450" y2="260"/><line x1="480" y1="240" x2="480" y2="260"/><line x1="510" y1="240" x2="510" y2="260"/><line x1="540" y1="240" x2="540" y2="260"/><line x1="570" y1="240" x2="570" y2="260"/><line x1="600" y1="240" x2="600" y2="260"/><line x1="630" y1="240" x2="630" y2="260"/><line x1="660" y1="240" x2="660" y2="260"/><line x1="690" y1="240" x2="690" y2="260"/><line x1="720" y1="240" x2="720" y2="260"/><line x1="750" y1="240" x2="750" y2="260"/><line x1="780" y1="240" x2="780" y2="260"/><line x1="810" y1="240" x2="810" y2="260"/><line x1="840" y1="240" x2="840" y2="260"/>
    </g>
  </g>
  <g clip-path="url(#cc5)">
    <rect x="10" y="165" width="260" height="80" rx="14" fill="#2a2018"/>
    <ellipse cx="80" cy="165" rx="28" ry="16" fill="#3a2e1c"/>
    <ellipse cx="155" cy="165" rx="18" ry="12" fill="#3a2e1c"/>
    <rect x="220" y="148" width="52" height="52" rx="4" fill="#3a3020"/>
    <rect x="226" y="155" width="16" height="16" rx="3" fill="rgba(255,200,80,0.4)" stroke="#5a4820" stroke-width="1.5"/>
    <rect x="248" y="155" width="16" height="16" rx="3" fill="rgba(255,200,80,0.35)" stroke="#5a4820" stroke-width="1.5"/>
    <circle cx="55" cy="248" r="28" fill="#1e1810" stroke="#5a4820" stroke-width="3"/>
    <circle cx="55" cy="248" r="18" fill="none" stroke="#4a3a14" stroke-width="3"/>
    <circle cx="55" cy="248" r="6" fill="#5a4820"/>
    <circle cx="130" cy="248" r="28" fill="#1e1810" stroke="#5a4820" stroke-width="3"/>
    <circle cx="130" cy="248" r="18" fill="none" stroke="#4a3a14" stroke-width="3"/>
    <circle cx="130" cy="248" r="6" fill="#5a4820"/>
    <circle cx="205" cy="248" r="22" fill="#1e1810" stroke="#5a4820" stroke-width="2.5"/>
    <circle cx="205" cy="248" r="14" fill="none" stroke="#4a3a14" stroke-width="2.5"/>
    <path d="M10,240 L10,260 L30,260 L40,245 Z" fill="#3a2c14"/>
    <circle cx="18" cy="205" r="14" fill="#b09020" stroke="#806010" stroke-width="2"/>
    <circle cx="18" cy="205" r="10" fill="rgba(255,220,100,0.85)"/>
    <ellipse cx="18" cy="205" rx="45" ry="30" fill="rgba(255,210,80,0.12)"/>
    <rect x="58" y="130" width="18" height="38" rx="3" fill="#2a2018"/>
    <ellipse cx="67" cy="130" rx="14" ry="6" fill="#3a3020"/>
    <g fill="url(#steam5)" opacity="0.7">
      <ellipse cx="67" cy="115" rx="22" ry="18"/><ellipse cx="80" cy="96" rx="18" ry="15"/>
      <ellipse cx="95" cy="78" rx="22" ry="18"/><ellipse cx="112" cy="62" rx="18" ry="14"/>
    </g>
  </g>
  <g clip-path="url(#cc5)">
    <rect x="460" y="148" width="220" height="98" rx="5" fill="#3a2e1a"/>
    <path d="M455,148 L570,118 L685,148" fill="#2a2010" stroke="#4a3818" stroke-width="2"/>
    <rect x="545" y="105" width="14" height="30" fill="#2a2010"/>
    <rect x="475" y="162" width="32" height="34" rx="4" fill="rgba(255,185,70,0.4)" stroke="#5a4818" stroke-width="2"/>
    <rect x="520" y="162" width="32" height="34" rx="4" fill="rgba(255,185,70,0.35)" stroke="#5a4818" stroke-width="2"/>
    <rect x="570" y="162" width="32" height="34" rx="4" fill="rgba(255,185,70,0.3)" stroke="#5a4818" stroke-width="2"/>
    <rect x="620" y="162" width="32" height="34" rx="4" fill="rgba(90,120,150,0.3)" stroke="#5a4818" stroke-width="2"/>
    <rect x="456" y="195" width="224" height="14" fill="#4a3818"/>
    <rect x="640" y="188" width="32" height="58" rx="2" fill="rgba(255,185,70,0.2)" stroke="#5a4818" stroke-width="1.5"/>
    <rect x="490" y="128" width="100" height="20" rx="3" fill="#5a4020" stroke="#7a6030" stroke-width="1.5"/>
    <text x="540" y="142" font-size="10" font-family="Georgia,serif" fill="#f0d880" text-anchor="middle" font-weight="700">VALDELUNA</text>
  </g>
  <g clip-path="url(#cc5)">
    <rect x="390" y="155" width="6" height="92" fill="#4a3818"/>
    <path d="M396,168 Q415,155 416,175" fill="none" stroke="#4a3818" stroke-width="5" stroke-linecap="round"/>
    <rect x="408" y="172" width="18" height="22" rx="4" fill="#b08e10" stroke="#806010" stroke-width="1.5"/>
    <ellipse cx="417" cy="190" rx="30" ry="28" fill="url(#lamp5)"/>
    <circle cx="417" cy="183" r="8" fill="rgba(255,210,80,0.9)"/>
  </g>
  <g clip-path="url(#cc5)">
    <rect x="300" y="218" width="55" height="42" rx="3" fill="#5a3c18" stroke="#7a5828" stroke-width="1.5"/>
    <line x1="300" y1="239" x2="355" y2="239" stroke="#7a5828" stroke-width="1"/>
    <line x1="327" y1="218" x2="327" y2="260" stroke="#7a5828" stroke-width="1"/>
    <rect x="355" y="228" width="38" height="32" rx="3" fill="#4a3010" stroke="#6a4820" stroke-width="1.5"/>
    <rect x="358" y="224" width="32" height="10" rx="2" fill="#6a4820"/>
  </g>
  <rect x="10" y="148" width="860" height="100" fill="url(#fog5a)" clip-path="url(#cc5)" opacity="0.8"/>
  <rect x="10" y="190" width="860" height="80" fill="url(#fog5b)" clip-path="url(#cc5)" opacity="0.75"/>
  <ellipse cx="250" cy="230" rx="200" ry="45" fill="rgba(140,158,180,0.3)" clip-path="url(#cc5)"/>
  <ellipse cx="650" cy="220" rx="180" ry="40" fill="rgba(130,150,175,0.25)" clip-path="url(#cc5)"/>
  <rect x="594" y="26" width="270" height="118" rx="12" fill="rgba(6,10,20,0.9)"/>
  <rect x="598" y="30" width="262" height="110" rx="10" fill="none" stroke="rgba(150,175,210,0.45)" stroke-width="1.2"/>
  <text x="729" y="58" font-size="18" font-family="Georgia,serif" fill="#d0e8f8" font-weight="700" text-anchor="middle">Capítulo V</text>
  <text x="729" y="81" font-size="12" font-family="Georgia,serif" fill="#90b8d8" text-anchor="middle">Niebla sobre Valdeluna</text>
  <text x="729" y="102" font-size="10" font-family="Georgia,serif" fill="#6890a8" text-anchor="middle" font-style="italic">«Donde la niebla no solo</text>
  <text x="729" y="117" font-size="10" font-family="Georgia,serif" fill="#6890a8" text-anchor="middle" font-style="italic">es clima: también es contabilidad»</text>
  <text x="729" y="136" font-size="9" font-family="Georgia,serif" fill="#506878" text-anchor="middle">Estación de Valdeluna · 1912</text>
  <rect x="10" y="10" width="860" height="340" rx="14" fill="none" stroke="#3a5068" stroke-width="2.5"/>
  <rect x="14" y="14" width="852" height="332" rx="12" fill="none" stroke="rgba(100,145,190,0.35)" stroke-width="1.2"/>
</svg>