<svg xmlns="http://www.w3.org/2000/svg" viewBox="0 0 880 360" role="img" aria-label="Capitulo III - La Biblioteca de los Reflejos">
  <defs>
    <linearGradient id="lib3" x1="0" y1="0" x2="0" y2="1"><stop offset="0%" stop-color="#0e1810"/><stop offset="100%" stop-color="#1a2818"/></linearGradient>
    <radialGradient id="lamplib" cx="62%" cy="50%" r="50%"><stop offset="0%" stop-color="#ffe898" stop-opacity="0.8"/><stop offset="100%" stop-color="#ffd060" stop-opacity="0"/></radialGradient>
    <radialGradient id="mirrorshine" cx="50%" cy="35%" r="55%"><stop offset="0%" stop-color="rgba(200,215,230,0.4)"/><stop offset="100%" stop-color="rgba(180,200,220,0)"/></radialGradient>
    <clipPath id="cc3"><rect x="10" y="10" width="860" height="340" rx="15"/></clipPath>
  </defs>
  <rect width="880" height="360" rx="18" fill="#08100a"/>
  <rect x="10" y="10" width="860" height="340" rx="14" fill="url(#lib3)"/>
  <ellipse cx="520" cy="160" rx="260" ry="180" fill="url(#lamplib)" clip-path="url(#cc3)"/>
  <rect x="10" y="278" width="860" height="72" fill="#2a1c0e" clip-path="url(#cc3)"/>
  <g stroke="rgba(70,50,25,0.4)" stroke-width="1" clip-path="url(#cc3)">
    <line x1="10" y1="295" x2="870" y2="295"/><line x1="10" y1="318" x2="870" y2="318"/>
    <line x1="80" y1="278" x2="80" y2="350"/><line x1="200" y1="278" x2="200" y2="350"/><line x1="320" y1="278" x2="320" y2="350"/><line x1="440" y1="278" x2="440" y2="350"/><line x1="560" y1="278" x2="560" y2="350"/><line x1="680" y1="278" x2="680" y2="350"/><line x1="800" y1="278" x2="800" y2="350"/>
  </g>
  <rect x="10" y="10" width="108" height="268" fill="#4a3018" clip-path="url(#cc3)"/>
  <g clip-path="url(#cc3)">
    <g fill="none" stroke="#3a2010" stroke-width="1"><line x1="10" y1="60" x2="118" y2="60"/><line x1="10" y1="100" x2="118" y2="100"/><line x1="10" y1="140" x2="118" y2="140"/><line x1="10" y1="180" x2="118" y2="180"/><line x1="10" y1="220" x2="118" y2="220"/><line x1="10" y1="260" x2="118" y2="260"/></g>
    <rect x="14" y="18" width="12" height="40" fill="#8a3010"/><rect x="28" y="22" width="10" height="36" fill="#2a4a20"/>
    <rect x="40" y="16" width="14" height="42" fill="#4a3080"/><rect x="56" y="20" width="10" height="38" fill="#806010"/>
    <rect x="68" y="18" width="12" height="40" fill="#3a5030"/><rect x="82" y="22" width="11" height="36" fill="#7a2a18"/>
    <rect x="95" y="16" width="11" height="42" fill="#204040"/>
    <rect x="14" y="64" width="10" height="34" fill="#4a6030"/><rect x="26" y="60" width="13" height="38" fill="#602010"/>
    <rect x="41" y="64" width="11" height="34" fill="#503070"/><rect x="54" y="62" width="12" height="36" fill="#284040"/>
    <rect x="68" y="60" width="14" height="38" fill="#703010"/><rect x="84" y="64" width="10" height="34" fill="#205030"/>
    <rect x="14" y="104" width="12" height="34" fill="#205828"/><rect x="28" y="102" width="14" height="36" fill="#782010"/>
    <rect x="44" y="104" width="10" height="34" fill="#604028"/><rect x="56" y="100" width="13" height="38" fill="#304060"/>
    <rect x="71" y="104" width="10" height="34" fill="#581818"/><rect x="83" y="102" width="13" height="36" fill="#285018"/>
    <rect x="14" y="144" width="11" height="34" fill="#482888"/><rect x="27" y="142" width="13" height="36" fill="#286030"/>
    <rect x="42" y="144" width="10" height="34" fill="#782020"/><rect x="54" y="140" width="14" height="38" fill="#383028"/>
    <rect x="70" y="144" width="12" height="34" fill="#486018"/><rect x="84" y="142" width="11" height="36" fill="#702818"/>
    <rect x="14" y="184" width="13" height="34" fill="#386020"/><rect x="29" y="182" width="10" height="36" fill="#780820"/>
    <rect x="41" y="184" width="14" height="34" fill="#303888"/><rect x="57" y="180" width="11" height="38" fill="#806028"/>
    <rect x="70" y="184" width="12" height="34" fill="#284830"/><rect x="84" y="182" width="10" height="36" fill="#602818"/>
    <rect x="14" y="224" width="10" height="34" fill="#603020"/><rect x="26" y="222" width="13" height="36" fill="#305828"/>
    <rect x="41" y="224" width="12" height="34" fill="#404080"/><rect x="55" y="220" width="14" height="38" fill="#906020"/>
    <rect x="71" y="224" width="11" height="34" fill="#582028"/><rect x="84" y="222" width="10" height="36" fill="#286040"/>
  </g>
  <g clip-path="url(#cc3)">
    <rect x="215" y="22" width="155" height="230" rx="6" fill="#3a4838" stroke="#6a5828" stroke-width="4"/>
    <rect x="220" y="27" width="145" height="220" rx="4" fill="#1a2818" stroke="#8a7040" stroke-width="2"/>
    <rect x="222" y="29" width="141" height="216" rx="3" fill="url(#mirrorshine)"/>
    <g opacity="0.4" clip-path="url(#cc3)">
      <rect x="224" y="30" width="12" height="214" fill="#4a3018"/>
      <rect x="348" y="30" width="12" height="214" fill="#4a3018"/>
      <rect x="224" y="35" width="10" height="32" fill="rgba(100,60,30,0.5)"/>
      <rect x="224" y="75" width="10" height="32" fill="rgba(100,60,30,0.5)"/>
      <rect x="224" y="115" width="10" height="32" fill="rgba(100,60,30,0.5)"/>
      <rect x="224" y="155" width="10" height="32" fill="rgba(100,60,30,0.5)"/>
      <rect x="224" y="195" width="10" height="32" fill="rgba(100,60,30,0.5)"/>
    </g>
    <path d="M228,32 L240,32 L240,240 L228,240" fill="rgba(255,255,255,0.08)"/>
    <rect x="240" y="220" width="100" height="22" rx="4" fill="rgba(180,160,100,0.18)"/>
    <text x="290" y="235" font-size="9" font-family="Georgia,serif" fill="rgba(200,185,140,0.7)" text-anchor="middle" font-style="italic">Espejo de consulta</text>
  </g>
  <g clip-path="url(#cc3)">
    <rect x="395" y="218" width="350" height="62" rx="6" fill="#5a3810" stroke="#7a5020" stroke-width="2"/>
    <rect x="395" y="208" width="350" height="14" rx="4" fill="#7a5018"/>
    <rect x="410" y="280" width="12" height="72" fill="#4a2c0a"/>
    <rect x="580" y="280" width="12" height="72" fill="#4a2c0a"/>
    <rect x="720" y="280" width="12" height="72" fill="#4a2c0a"/>
    <rect x="710" y="185" width="22" height="30" rx="5" fill="#b09020" stroke="#806010" stroke-width="2"/>
    <path d="M710,188 L721,175 L732,188" fill="none" stroke="#c0a030" stroke-width="2.5"/>
    <circle cx="721" cy="173" r="6" fill="rgba(255,215,80,0.95)"/>
    <rect x="415" y="212" width="90" height="60" rx="2" fill="#e8d8a8" stroke="#8a7030" stroke-width="1.5" transform="rotate(-8 460 242)"/>
    <rect x="510" y="214" width="80" height="58" rx="2" fill="#e0d098" stroke="#8a7030" stroke-width="1.5" transform="rotate(5 550 243)"/>
    <rect x="598" y="210" width="95" height="62" rx="2" fill="#e8d8a8" stroke="#8a7030" stroke-width="1.5" transform="rotate(-3 645 241)"/>
    <g stroke="rgba(60,40,10,0.5)" stroke-width="0.8" transform="rotate(-8 460 242)">
      <line x1="422" y1="222" x2="498" y2="222"/><line x1="422" y1="230" x2="498" y2="230"/><line x1="422" y1="238" x2="498" y2="238"/><line x1="422" y1="246" x2="498" y2="246"/>
    </g>
    <circle cx="548" cy="244" r="8" fill="none" stroke="#a02010" stroke-width="1.8" transform="rotate(5 550 243)"/>
  </g>
  <rect x="772" y="10" width="98" height="268" fill="#4a3018" clip-path="url(#cc3)"/>
  <g clip-path="url(#cc3)">
    <g fill="none" stroke="#3a2010" stroke-width="1"><line x1="772" y1="60" x2="870" y2="60"/><line x1="772" y1="100" x2="870" y2="100"/><line x1="772" y1="140" x2="870" y2="140"/><line x1="772" y1="180" x2="870" y2="180"/><line x1="772" y1="220" x2="870" y2="220"/><line x1="772" y1="260" x2="870" y2="260"/></g>
    <rect x="774" y="18" width="10" height="40" fill="#3a5030"/><rect x="786" y="22" width="12" height="36" fill="#7a2818"/>
    <rect x="800" y="18" width="11" height="40" fill="#206040"/><rect x="813" y="20" width="13" height="38" fill="#502880"/>
    <rect x="828" y="18" width="10" height="40" fill="#704018"/><rect x="840" y="22" width="12" height="36" fill="#285828"/>
    <rect x="854" y="18" width="14" height="40" fill="#802018"/>
    <rect x="774" y="64" width="13" height="34" fill="#484868"/><rect x="789" y="62" width="10" height="36" fill="#306830"/>
    <rect x="801" y="64" width="14" height="34" fill="#702010"/><rect x="817" y="60" width="11" height="38" fill="#386048"/>
    <rect x="830" y="64" width="12" height="34" fill="#802828"/><rect x="844" y="62" width="12" height="36" fill="#484018"/>
  </g>
  <rect x="398" y="28" width="268" height="118" rx="12" fill="rgba(10,20,12,0.86)"/>
  <rect x="402" y="32" width="260" height="110" rx="10" fill="none" stroke="rgba(160,200,120,0.4)" stroke-width="1.2"/>
  <text x="532" y="60" font-size="18" font-family="Georgia,serif" fill="#d8f0c0" font-weight="700" text-anchor="middle">Capítulo III</text>
  <text x="532" y="83" font-size="12" font-family="Georgia,serif" fill="#a0c880" text-anchor="middle">La Biblioteca de los Reflejos</text>
  <text x="532" y="105" font-size="10" font-family="Georgia,serif" fill="#80a060" text-anchor="middle" font-style="italic">«Lo importante no es la noticia,</text>
  <text x="532" y="120" font-size="10" font-family="Georgia,serif" fill="#80a060" text-anchor="middle" font-style="italic">sino qué versión sobrevive»</text>
  <text x="532" y="136" font-size="9" font-family="Georgia,serif" fill="#607848" text-anchor="middle">Biblioteca Municipal · 1912</text>
  <rect x="10" y="10" width="860" height="340" rx="14" fill="none" stroke="#506830" stroke-width="2.5"/>
  <rect x="14" y="14" width="852" height="332" rx="12" fill="none" stroke="rgba(120,180,80,0.35)" stroke-width="1.2"/>
</svg>