<svg xmlns="http://www.w3.org/2000/svg" viewBox="0 0 880 360" role="img" aria-label="Capitulo IV - El Campanario Oculto">
  <defs>
    <linearGradient id="shaft4" x1="0" y1="0" x2="0" y2="1"><stop offset="0%" stop-color="#080a12"/><stop offset="40%" stop-color="#12161e"/><stop offset="100%" stop-color="#1c2028"/></linearGradient>
    <radialGradient id="bellglow4" cx="50%" cy="14%" r="38%"><stop offset="0%" stop-color="#c09030" stop-opacity="0.72"/><stop offset="100%" stop-color="#c09030" stop-opacity="0"/></radialGradient>
    <radialGradient id="torch4" cx="18%" cy="46%" r="38%"><stop offset="0%" stop-color="#ff9030" stop-opacity="0.72"/><stop offset="100%" stop-color="#ff9030" stop-opacity="0"/></radialGradient>
    <radialGradient id="moon4" cx="84%" cy="34%" r="28%"><stop offset="0%" stop-color="#a8c8f0" stop-opacity="0.5"/><stop offset="100%" stop-color="#a8c8f0" stop-opacity="0"/></radialGradient>
    <clipPath id="cc4"><rect x="10" y="10" width="860" height="340" rx="15"/></clipPath>
  </defs>
  <rect width="880" height="360" rx="18" fill="#060810"/>
  <rect x="10" y="10" width="860" height="340" rx="14" fill="url(#shaft4)"/>
  <ellipse cx="440" cy="55" rx="195" ry="135" fill="url(#bellglow4)" clip-path="url(#cc4)"/>
  <rect x="10" y="10" width="860" height="340" rx="14" fill="url(#torch4)" clip-path="url(#cc4)"/>
  <rect x="10" y="10" width="860" height="340" rx="14" fill="url(#moon4)" clip-path="url(#cc4)"/>
  <!-- Left stone wall (perspective trapezoid) -->
  <polygon points="10,10 204,10 296,350 10,350" fill="#1d2126" clip-path="url(#cc4)"/>
  <!-- Right stone wall -->
  <polygon points="870,10 676,10 584,350 870,350" fill="#1d2126" clip-path="url(#cc4)"/>
  <!-- Inner shaft back wall -->
  <rect x="204" y="10" width="472" height="340" fill="#15171e" clip-path="url(#cc4)"/>
  <!-- Stone mortar lines left wall -->
  <g stroke="rgba(35,40,50,0.9)" stroke-width="1.5" fill="none" clip-path="url(#cc4)">
    <line x1="10" y1="58" x2="204" y2="48"/><line x1="10" y1="106" x2="204" y2="92"/>
    <line x1="10" y1="154" x2="204" y2="136"/><line x1="10" y1="202" x2="204" y2="180"/>
    <line x1="10" y1="250" x2="204" y2="224"/><line x1="10" y1="298" x2="204" y2="268"/>
    <line x1="62" y1="10" x2="72" y2="350"/><line x1="122" y1="10" x2="136" y2="350"/><line x1="174" y1="10" x2="191" y2="350"/>
    <line x1="36" y1="58" x2="38" y2="106"/><line x1="92" y1="58" x2="95" y2="106"/><line x1="148" y1="58" x2="151" y2="106"/>
    <line x1="36" y1="154" x2="38" y2="202"/><line x1="92" y1="154" x2="95" y2="202"/><line x1="148" y1="154" x2="151" y2="202"/>
    <line x1="36" y1="250" x2="38" y2="298"/><line x1="92" y1="250" x2="95" y2="298"/><line x1="148" y1="250" x2="151" y2="298"/>
  </g>
  <!-- Stone mortar lines right wall -->
  <g stroke="rgba(35,40,50,0.9)" stroke-width="1.5" fill="none" clip-path="url(#cc4)">
    <line x1="870" y1="58" x2="676" y2="48"/><line x1="870" y1="106" x2="676" y2="92"/>
    <line x1="870" y1="154" x2="676" y2="136"/><line x1="870" y1="202" x2="676" y2="180"/>
    <line x1="870" y1="250" x2="676" y2="224"/><line x1="870" y1="298" x2="676" y2="268"/>
    <line x1="818" y1="10" x2="804" y2="350"/><line x1="758" y1="10" x2="744" y2="350"/><line x1="706" y1="10" x2="689" y2="350"/>
    <line x1="844" y1="58" x2="842" y2="106"/><line x1="788" y1="58" x2="785" y2="106"/><line x1="732" y1="58" x2="729" y2="106"/>
    <line x1="844" y1="154" x2="842" y2="202"/><line x1="788" y1="154" x2="785" y2="202"/><line x1="732" y1="154" x2="729" y2="202"/>
    <line x1="844" y1="250" x2="842" y2="298"/><line x1="788" y1="250" x2="785" y2="298"/><line x1="732" y1="250" x2="729" y2="298"/>
  </g>
  <!-- Shaft back wall stone lines -->
  <g stroke="rgba(28,32,42,0.7)" stroke-width="1" fill="none" clip-path="url(#cc4)">
    <line x1="204" y1="68" x2="676" y2="68"/><line x1="204" y1="128" x2="676" y2="128"/>
    <line x1="204" y1="188" x2="676" y2="188"/><line x1="204" y1="248" x2="676" y2="248"/>
    <line x1="204" y1="308" x2="676" y2="308"/>
    <line x1="264" y1="10" x2="264" y2="350"/><line x1="344" y1="10" x2="344" y2="350"/>
    <line x1="424" y1="10" x2="424" y2="350"/><line x1="504" y1="10" x2="504" y2="350"/>
    <line x1="584" y1="10" x2="584" y2="350"/>
  </g>
  <!-- Opening at top (shaft continues up) -->
  <ellipse cx="440" cy="18" rx="96" ry="24" fill="#060810" clip-path="url(#cc4)"/>
  <!-- BELL at top center -->
  <g clip-path="url(#cc4)">
    <!-- Beam mount -->
    <rect x="390" y="10" width="100" height="14" rx="3" fill="#4a3810"/>
    <rect x="424" y="10" width="32" height="32" fill="#4a3810"/>
    <!-- Bell body -->
    <path d="M374,40 Q374,26 440,22 Q506,26 506,40 Q510,62 508,82 Q496,98 440,102 Q384,98 372,82 Q370,62 374,40 Z" fill="#8a6420" stroke="#c09030" stroke-width="2.5"/>
    <ellipse cx="440" cy="102" rx="68" ry="13" fill="#6a4c14" stroke="#a07820" stroke-width="2"/>
    <!-- Bell decorative bands -->
    <path d="M376,70 Q440,64 504,70" fill="none" stroke="#c09030" stroke-width="2.5"/>
    <path d="M377,56 Q440,50 503,56" fill="none" stroke="#a07820" stroke-width="1.8"/>
    <path d="M380,42 Q440,38 500,42" fill="none" stroke="#906818" stroke-width="1.5"/>
    <!-- Bell highlight -->
    <path d="M395,30 Q418,24 440,24 Q452,28 442,34 Q420,30 395,30 Z" fill="rgba(255,230,130,0.35)"/>
    <!-- Clapper -->
    <line x1="440" y1="68" x2="440" y2="98" stroke="#3a2808" stroke-width="5"/>
    <ellipse cx="440" cy="99" rx="9" ry="7" fill="#4a3010"/>
    <!-- Chain links hanging -->
    <g fill="none" stroke="#8a6830" stroke-width="2.5" clip-path="url(#cc4)">
      <ellipse cx="440" cy="116" rx="7" ry="3.5"/>
      <ellipse cx="440" cy="130" rx="3.5" ry="7"/>
      <ellipse cx="440" cy="144" rx="7" ry="3.5"/>
      <ellipse cx="440" cy="158" rx="3.5" ry="7"/>
      <ellipse cx="440" cy="172" rx="7" ry="3.5"/>
      <ellipse cx="440" cy="186" rx="3.5" ry="7"/>
      <ellipse cx="440" cy="200" rx="7" ry="3.5"/>
      <ellipse cx="440" cy="214" rx="3.5" ry="7"/>
      <ellipse cx="440" cy="228" rx="7" ry="3.5"/>
      <ellipse cx="440" cy="242" rx="3.5" ry="7"/>
    </g>
    <!-- Rope below chain -->
    <line x1="440" y1="252" x2="440" y2="312" stroke="#7a5c20" stroke-width="3" stroke-dasharray="10 5"/>
  </g>
  <!-- IRON LADDER left inner wall -->
  <g clip-path="url(#cc4)">
    <line x1="222" y1="136" x2="233" y2="350" stroke="#4a3c18" stroke-width="5" stroke-linecap="round"/>
    <line x1="262" y1="136" x2="273" y2="350" stroke="#4a3c18" stroke-width="5" stroke-linecap="round"/>
    <line x1="224" y1="150" x2="264" y2="150" stroke="#3a2e10" stroke-width="4" stroke-linecap="round"/>
    <line x1="225" y1="168" x2="265" y2="168" stroke="#3a2e10" stroke-width="4" stroke-linecap="round"/>
    <line x1="227" y1="186" x2="267" y2="186" stroke="#3a2e10" stroke-width="4" stroke-linecap="round"/>
    <line x1="228" y1="204" x2="268" y2="204" stroke="#3a2e10" stroke-width="4" stroke-linecap="round"/>
    <line x1="230" y1="222" x2="270" y2="222" stroke="#3a2e10" stroke-width="4" stroke-linecap="round"/>
    <line x1="231" y1="240" x2="271" y2="240" stroke="#3a2e10" stroke-width="4" stroke-linecap="round"/>
    <line x1="233" y1="258" x2="273" y2="258" stroke="#3a2e10" stroke-width="4" stroke-linecap="round"/>
    <line x1="235" y1="276" x2="275" y2="276" stroke="#3a2e10" stroke-width="4" stroke-linecap="round"/>
    <line x1="236" y1="294" x2="276" y2="294" stroke="#3a2e10" stroke-width="4" stroke-linecap="round"/>
    <line x1="238" y1="312" x2="278" y2="312" stroke="#3a2e10" stroke-width="4" stroke-linecap="round"/>
    <line x1="240" y1="330" x2="280" y2="330" stroke="#3a2e10" stroke-width="4" stroke-linecap="round"/>
  </g>
  <!-- TORCH SCONCE on left wall -->
  <g clip-path="url(#cc4)">
    <rect x="143" y="146" width="34" height="9" rx="3" fill="#4a3818"/>
    <rect x="155" y="146" width="10" height="24" rx="2" fill="#4a3818"/>
    <path d="M148,170 L180,170 L176,192 L152,192 Z" fill="#5a3c14" stroke="#8a5820" stroke-width="2"/>
    <!-- Flame -->
    <path d="M153,168 Q157,152 161,138 Q165,154 159,163 Q165,146 171,134 Q173,150 168,160 Q172,143 177,136 L178,168 Z" fill="#ff8820"/>
    <path d="M156,168 Q159,156 162,147 Q165,158 162,165 Q167,150 172,142 L173,168 Z" fill="#ffcc38" opacity="0.85"/>
    <ellipse cx="164" cy="166" rx="15" ry="6" fill="#ffe878" opacity="0.55"/>
  </g>
  <!-- ARCHED WINDOW right wall with moonlight -->
  <g clip-path="url(#cc4)">
    <path d="M718,82 Q692,52 692,116 L692,206 L756,206 L756,116 Q756,52 730,82 Z" fill="#080e18" stroke="#3a3828" stroke-width="2.5"/>
    <!-- Moon in window -->
    <circle cx="724" cy="96" r="24" fill="#c0d0e8" opacity="0.88"/>
    <circle cx="733" cy="92" r="19" fill="#080e18" opacity="0.38"/>
    <!-- Moonbeam shafts -->
    <path d="M700,118 L648,188" fill="none" stroke="rgba(172,196,238,0.22)" stroke-width="22"/>
    <path d="M724,132 L684,206" fill="none" stroke="rgba(172,196,238,0.18)" stroke-width="14"/>
    <!-- Window bars (cross) -->
    <line x1="724" y1="82" x2="724" y2="206" stroke="#3a3828" stroke-width="3"/>
    <line x1="692" y1="152" x2="756" y2="152" stroke="#3a3828" stroke-width="3"/>
  </g>
  <!-- HIDDEN GEAR CLOCK on back right wall -->
  <g clip-path="url(#cc4)">
    <circle cx="568" cy="162" r="42" fill="#0a0c18" stroke="#6a5020" stroke-width="3"/>
    <circle cx="568" cy="162" r="35" fill="none" stroke="#5a4018" stroke-width="1.5"/>
    <g stroke="#7a6020" stroke-width="2">
      <line x1="568" y1="120" x2="568" y2="127"/><line x1="568" y1="197" x2="568" y2="204"/>
      <line x1="526" y1="162" x2="533" y2="162"/><line x1="603" y1="162" x2="610" y2="162"/>
      <line x1="539" y1="132" x2="544" y2="137"/><line x1="592" y1="187" x2="597" y2="192"/>
      <line x1="597" y1="132" x2="592" y2="137"/><line x1="539" y1="187" x2="544" y2="192"/>
    </g>
    <!-- Clock hands showing different time (puzzle element) -->
    <line x1="568" y1="162" x2="568" y2="131" stroke="#c09030" stroke-width="3.5" stroke-linecap="round"/>
    <line x1="568" y1="162" x2="590" y2="170" stroke="#c09030" stroke-width="3" stroke-linecap="round"/>
    <circle cx="568" cy="162" r="4" fill="#c09030"/>
    <text x="568" y="212" font-size="8" font-family="Georgia,serif" fill="rgba(160,120,48,0.7)" text-anchor="middle" font-style="italic">péndulo</text>
  </g>
  <!-- TRAPDOOR at floor -->
  <g clip-path="url(#cc4)">
    <rect x="322" y="308" width="136" height="44" rx="4" fill="#4a3414" stroke="#7a5420" stroke-width="2.5"/>
    <rect x="322" y="308" width="136" height="10" rx="3" fill="#6a4c1c"/>
    <line x1="324" y1="322" x2="456" y2="322" stroke="rgba(80,55,20,0.5)" stroke-width="1"/>
    <line x1="324" y1="334" x2="456" y2="334" stroke="rgba(80,55,20,0.5)" stroke-width="1"/>
    <line x1="324" y1="346" x2="456" y2="346" stroke="rgba(80,55,20,0.5)" stroke-width="1"/>
    <!-- Iron hinges -->
    <rect x="330" y="310" width="26" height="9" rx="2" fill="#3a3030"/>
    <rect x="333" y="312" width="4" height="5" rx="1" fill="#585050"/>
    <rect x="424" y="310" width="26" height="9" rx="2" fill="#3a3030"/>
    <rect x="442" y="312" width="4" height="5" rx="1" fill="#585050"/>
    <!-- Keyhole -->
    <circle cx="390" cy="330" r="6" fill="#0c0808" stroke="#7a5820" stroke-width="1.5"/>
    <rect x="387" y="333" width="7" height="9" rx="1" fill="#0c0808" stroke="#7a5820" stroke-width="1"/>
    <!-- Iron ring handle -->
    <circle cx="390" cy="346" r="6" fill="none" stroke="#5a4020" stroke-width="2.5"/>
  </g>
  <!-- Floor boards -->
  <rect x="204" y="306" width="472" height="44" fill="#28180a" clip-path="url(#cc4)"/>
  <g stroke="rgba(48,32,12,0.65)" stroke-width="1" clip-path="url(#cc4)" fill="none">
    <line x1="204" y1="318" x2="676" y2="318"/><line x1="204" y1="330" x2="676" y2="330"/>
    <line x1="204" y1="342" x2="676" y2="342"/>
    <line x1="256" y1="306" x2="256" y2="350"/><line x1="318" y1="306" x2="318" y2="350"/>
    <line x1="390" y1="306" x2="390" y2="350"/><line x1="462" y1="306" x2="462" y2="350"/>
    <line x1="534" y1="306" x2="534" y2="350"/><line x1="618" y1="306" x2="618" y2="350"/>
  </g>
  <!-- Text card lower right -->
  <rect x="598" y="230" width="272" height="122" rx="12" fill="rgba(6,8,18,0.92)"/>
  <rect x="602" y="234" width="264" height="114" rx="10" fill="none" stroke="rgba(180,140,60,0.52)" stroke-width="1.5"/>
  <text x="734" y="262" font-size="18" font-family="Georgia,serif" fill="#f0d888" font-weight="700" text-anchor="middle">Capítulo IV</text>
  <text x="734" y="285" font-size="12" font-family="Georgia,serif" fill="#c8a450" text-anchor="middle">El Campanario Oculto</text>
  <text x="734" y="306" font-size="10" font-family="Georgia,serif" fill="#988040" text-anchor="middle" font-style="italic">«La escalera borrada</text>
  <text x="734" y="321" font-size="10" font-family="Georgia,serif" fill="#988040" text-anchor="middle" font-style="italic">del plano oficial»</text>
  <text x="734" y="342" font-size="9" font-family="Georgia,serif" fill="#746030" text-anchor="middle">Torre del Reloj · Otoño 1912</text>
  <!-- Border -->
  <rect x="10" y="10" width="860" height="340" rx="14" fill="none" stroke="#605028" stroke-width="2.5"/>
  <rect x="14" y="14" width="852" height="332" rx="12" fill="none" stroke="rgba(180,140,60,0.35)" stroke-width="1.2"/>
</svg>
