<svg xmlns="http://www.w3.org/2000/svg" viewBox="0 0 1200 760" role="img" aria-label="Mapa regional de San Teodoro y Valdeluna, 1912">
  <defs>
    <linearGradient id="parch" x1="0" y1="0" x2="0.3" y2="1">
      <stop offset="0%" stop-color="#f4e8cc"/>
      <stop offset="50%" stop-color="#ead5a8"/>
      <stop offset="100%" stop-color="#d8c090"/>
    </linearGradient>
    <linearGradient id="skyG" x1="0" y1="0" x2="0" y2="1">
      <stop offset="0%" stop-color="rgba(190,210,230,0.55)"/>
      <stop offset="100%" stop-color="rgba(190,210,230,0)"/>
    </linearGradient>
    <filter id="ds"><feDropShadow dx="1" dy="2" stdDeviation="2" flood-color="#3a2b1d" flood-opacity="0.3"/></filter>
    <clipPath id="mc"><rect x="12" y="12" width="1176" height="736" rx="18"/></clipPath>
  </defs>
  <rect width="1200" height="760" rx="20" fill="#3a2b1a"/>
  <rect x="6" y="6" width="1188" height="748" rx="18" fill="url(#parch)"/>
  <rect x="12" y="12" width="1176" height="736" rx="16" fill="url(#parch)"/>
  <rect x="18" y="18" width="1164" height="724" rx="14" fill="none" stroke="#8a6a3d" stroke-width="2"/>
  <rect x="24" y="24" width="1152" height="712" rx="12" fill="none" stroke="rgba(140,100,50,0.4)" stroke-width="1"/>
  <rect x="12" y="12" width="1176" height="320" fill="url(#skyG)" clip-path="url(#mc)"/>
  <!-- Mountains (Sierras del Bronce) upper area -->
  <g clip-path="url(#mc)" fill="#b09060" opacity="0.7">
    <polygon points="430,52 545,185 315,185"/>
    <polygon points="570,42 710,200 430,200"/>
    <polygon points="695,58 835,195 555,195"/>
    <polygon points="810,46 955,205 665,205"/>
    <polygon points="430,52 478,125 382,125" fill="#e8dfc8" opacity="0.85"/>
    <polygon points="570,42 628,135 512,135" fill="#e8dfc8" opacity="0.85"/>
    <polygon points="695,58 758,145 632,145" fill="#e8dfc8" opacity="0.85"/>
    <polygon points="810,46 878,150 742,150" fill="#e8dfc8" opacity="0.85"/>
  </g>
  <text x="620" y="44" font-family="Georgia,serif" font-size="20" fill="#6a5030" text-anchor="middle" font-style="italic" opacity="0.8" clip-path="url(#mc)">SIERRAS DEL BRONCE</text>
  <!-- Forest patches -->
  <g clip-path="url(#mc)">
    <g fill="#7a9858">
      <circle cx="720" cy="332" r="22"/><circle cx="745" cy="320" r="18"/><circle cx="766" cy="335" r="20"/>
      <circle cx="790" cy="325" r="16"/><circle cx="700" cy="346" r="15"/>
      <rect x="718" y="347" width="5" height="12" fill="#5a4030"/>
      <rect x="742" y="333" width="4" height="10" fill="#5a4030"/>
      <rect x="763" y="349" width="5" height="12" fill="#5a4030"/>
    </g>
    <g fill="#6a8848">
      <circle cx="100" cy="482" r="25"/><circle cx="130" cy="467" r="22"/><circle cx="155" cy="480" r="20"/>
      <circle cx="80" cy="502" r="18"/><circle cx="170" cy="497" r="16"/>
    </g>
    <g fill="#7a9858">
      <circle cx="900" cy="382" r="20"/><circle cx="925" cy="372" r="17"/><circle cx="946" cy="387" r="18"/><circle cx="970" cy="377" r="16"/>
    </g>
    <g fill="#6a8848" opacity="0.8">
      <circle cx="200" cy="352" r="18"/><circle cx="218" cy="342" r="15"/><circle cx="235" cy="357" r="16"/>
    </g>
  </g>
  <!-- River (Rio de la Niebla) -->
  <g clip-path="url(#mc)">
    <path d="M280,192 C320,232 350,282 378,332 C408,382 428,422 438,472 C448,512 443,562 418,622" fill="none" stroke="rgba(50,80,120,0.2)" stroke-width="22" stroke-linecap="round"/>
    <path d="M280,192 C320,232 350,282 378,332 C408,382 428,422 438,472 C448,512 443,562 418,622" fill="none" stroke="#5580a8" stroke-width="12" stroke-linecap="round"/>
    <path d="M282,194 C322,234 352,284 380,334 C410,384 430,424 440,474 C450,514 445,564 420,624" fill="none" stroke="rgba(150,190,220,0.5)" stroke-width="4" stroke-linecap="round"/>
    <text transform="translate(388,392) rotate(-60)" font-family="Georgia,serif" font-size="17" fill="#4070a8" font-style="italic" opacity="0.9">Rio de la Niebla</text>
  </g>
  <!-- Road (Camino de la Cantera) -->
  <g clip-path="url(#mc)">
    <path d="M308,447 C378,422 448,397 508,382 C568,367 613,350 638,330 C668,307 738,294 818,282 C878,272 938,264 988,254 C1028,246 1063,227 1080,210" fill="none" stroke="rgba(100,80,50,0.35)" stroke-width="14" stroke-linecap="round"/>
    <path d="M308,447 C378,422 448,397 508,382 C568,367 613,350 638,330 C668,307 738,294 818,282 C878,272 938,264 988,254 C1028,246 1063,227 1080,210" fill="none" stroke="#c4a868" stroke-width="8" stroke-linecap="round"/>
    <path d="M308,447 C378,422 448,397 508,382 C568,367 613,350 638,330 C668,307 738,294 818,282 C878,272 938,264 988,254 C1028,246 1063,227 1080,210" fill="none" stroke="rgba(180,150,100,0.6)" stroke-width="2" stroke-dasharray="14 8" stroke-linecap="round"/>
    <text x="702" y="367" font-family="Georgia,serif" font-size="14" fill="#6a5025" font-style="italic" text-anchor="middle" transform="rotate(-20,702,367)">Camino de la Cantera</text>
  </g>
  <!-- Quarry (Cantera) -->
  <g clip-path="url(#mc)" filter="url(#ds)">
    <path d="M868,342 L910,342 L920,382 L858,382 Z" fill="#a09060" stroke="#6a5030" stroke-width="1.5"/>
    <path d="M873,347 L905,347 L912,377 L866,377 Z" fill="#b8a870"/>
    <path d="M878,357 L904,362 M880,367 L907,370" stroke="#7a6040" stroke-width="1.5"/>
    <text x="888" y="397" font-family="Georgia,serif" font-size="12" fill="#5a4020" text-anchor="middle" font-style="italic">Cantera</text>
  </g>
  <!-- San Teodoro town -->
  <g clip-path="url(#mc)" filter="url(#ds)">
    <ellipse cx="345" cy="452" rx="125" ry="80" fill="rgba(180,155,110,0.3)" stroke="rgba(100,75,40,0.4)" stroke-width="2" stroke-dasharray="6 4"/>
    <!-- Buildings -->
    <rect x="278" y="416" width="22" height="16" rx="2" fill="#a07850"/>
    <rect x="303" y="411" width="18" height="20" rx="2" fill="#b08860"/>
    <rect x="324" y="418" width="20" height="14" rx="2" fill="#a07850"/>
    <rect x="268" y="436" width="24" height="15" rx="2" fill="#b08860"/>
    <rect x="348" y="406" width="22" height="18" rx="2" fill="#a07850"/>
    <rect x="373" y="412" width="18" height="16" rx="2" fill="#b08860"/>
    <rect x="393" y="420" width="20" height="14" rx="2" fill="#a07850"/>
    <rect x="413" y="410" width="16" height="18" rx="2" fill="#b08860"/>
    <polygon points="278,416 289,407 300,416" fill="#7a4a28"/>
    <polygon points="303,411 312,401 321,411" fill="#7a4a28"/>
    <polygon points="348,406 359,396 370,406" fill="#7a4a28"/>
    <polygon points="373,412 382,402 391,412" fill="#7a4a28"/>
    <!-- Clock Tower -->
    <rect x="318" y="368" width="28" height="56" fill="#5a4530"/>
    <rect x="315" y="354" width="34" height="18" fill="#4a3520"/>
    <rect x="316" y="345" width="32" height="12" fill="#5a4530"/>
    <polygon points="332,328 348,345 316,345" fill="#3a2818"/>
    <circle cx="332" cy="363" r="9" fill="#e8d8a8" stroke="#a08030" stroke-width="1.5"/>
    <line x1="332" y1="363" x2="332" y2="357" stroke="#3a2818" stroke-width="1.2"/>
    <line x1="332" y1="363" x2="337" y2="367" stroke="#3a2818" stroke-width="1"/>
    <rect x="325" y="378" width="7" height="10" rx="3 3 0 0" fill="rgba(255,200,100,0.5)" stroke="#6a5030" stroke-width="0.8"/>
    <rect x="335" y="378" width="7" height="10" rx="3 3 0 0" fill="rgba(100,130,160,0.4)" stroke="#6a5030" stroke-width="0.8"/>
    <!-- Town label -->
    <text x="332" y="494" font-family="Georgia,serif" font-size="22" fill="#2a1a0a" font-weight="700" text-anchor="middle">San Teodoro</text>
    <text x="332" y="512" font-family="Georgia,serif" font-size="13" fill="#5a4020" text-anchor="middle" font-style="italic">Villa del reloj</text>
    <!-- Pin I -->
    <circle cx="324" cy="433" r="8" fill="#d48b47" stroke="#8a4a18" stroke-width="1.8" filter="url(#ds)"/>
    <text x="324" y="437" font-family="Georgia,serif" font-size="10" fill="#fff" text-anchor="middle" font-weight="700">I</text>
  </g>
  <!-- Taller Bercial (cap2) -->
  <g clip-path="url(#mc)" filter="url(#ds)">
    <rect x="489" y="358" width="35" height="26" rx="2" fill="#906040"/>
    <polygon points="489,358 506,347 524,358" fill="#6a4020"/>
    <rect x="514" y="344" width="6" height="14" fill="#5a3818"/>
    <circle cx="517" cy="340" r="4" fill="rgba(120,120,120,0.35)"/>
    <circle cx="520" cy="334" r="3" fill="rgba(120,120,120,0.22)"/>
    <text x="506" y="402" font-family="Georgia,serif" font-size="16" fill="#3a2510" font-weight="700" text-anchor="middle">Taller Bercial</text>
    <!-- Pin II -->
    <circle cx="504" cy="380" r="7" fill="#d48b47" stroke="#8a4a18" stroke-width="1.6"/>
    <text x="504" y="384" font-family="Georgia,serif" font-size="9" fill="#fff" text-anchor="middle" font-weight="700">II</text>
  </g>
  <!-- Biblioteca (cap3) -->
  <g clip-path="url(#mc)" filter="url(#ds)">
    <rect x="618" y="305" width="40" height="30" rx="3" fill="#7a6548"/>
    <rect x="622" y="310" width="10" height="16" rx="5 5 0 0" fill="rgba(180,150,100,0.4)" stroke="#6a5030" stroke-width="0.8"/>
    <rect x="635" y="310" width="10" height="16" rx="5 5 0 0" fill="rgba(180,150,100,0.4)" stroke="#6a5030" stroke-width="0.8"/>
    <rect x="648" y="310" width="10" height="16" rx="5 5 0 0" fill="rgba(180,150,100,0.4)" stroke="#6a5030" stroke-width="0.8"/>
    <polygon points="618,305 638,292 658,305" fill="#5a4528"/>
    <text x="638" y="352" font-family="Georgia,serif" font-size="16" fill="#3a2510" font-weight="700" text-anchor="middle">Biblioteca</text>
    <!-- Pin III -->
    <circle cx="636" cy="327" r="7" fill="#d48b47" stroke="#8a4a18" stroke-width="1.6"/>
    <text x="636" y="331" font-family="Georgia,serif" font-size="9" fill="#fff" text-anchor="middle" font-weight="700">III</text>
  </g>
  <!-- Campanario (cap4) -->
  <g clip-path="url(#mc)" filter="url(#ds)">
    <rect x="806" y="254" width="22" height="36" fill="#4a3a28"/>
    <rect x="803" y="248" width="28" height="10" fill="#5a4835"/>
    <g fill="#3a2a1a"><rect x="803" y="240" width="7" height="10"/><rect x="813" y="240" width="7" height="10"/><rect x="823" y="240" width="7" height="10"/></g>
    <polygon points="817,226 831,240 803,240" fill="#2a1a0e"/>
    <rect x="812" y="258" width="10" height="14" rx="5 5 0 0" fill="rgba(50,30,10,0.5)" stroke="#6a5030" stroke-width="0.8"/>
    <text x="817" y="302" font-family="Georgia,serif" font-size="16" fill="#3a2510" font-weight="700" text-anchor="middle">Campanario</text>
    <!-- Pin IV -->
    <circle cx="816" cy="281" r="7" fill="#d48b47" stroke="#8a4a18" stroke-width="1.6"/>
    <text x="816" y="285" font-family="Georgia,serif" font-size="9" fill="#fff" text-anchor="middle" font-weight="700">IV</text>
  </g>
  <!-- Valdeluna (cap5) -->
  <g clip-path="url(#mc)" filter="url(#ds)">
    <path d="M918,262 L1120,212" fill="none" stroke="#4a4030" stroke-width="6"/>
    <path d="M918,262 L1120,212" fill="none" stroke="#c8b880" stroke-width="2" stroke-dasharray="8 4"/>
    <rect x="955" y="230" width="52" height="30" rx="3" fill="#7a6040"/>
    <polygon points="955,230 981,218 1007,230" fill="#5a4520"/>
    <rect x="1007" y="230" width="35" height="12" fill="#6a5030"/>
    <rect x="944" y="246" width="30" height="14" rx="4" fill="#3a3020"/>
    <circle cx="950" cy="262" r="5" fill="#2a2010"/>
    <circle cx="968" cy="262" r="5" fill="#2a2010"/>
    <circle cx="957" cy="240" r="7" fill="rgba(150,150,140,0.35)"/>
    <circle cx="963" cy="233" r="5" fill="rgba(150,150,140,0.25)"/>
    <text x="984" y="292" font-family="Georgia,serif" font-size="20" fill="#2a1a08" font-weight="700" text-anchor="middle">Valdeluna</text>
    <text x="984" y="309" font-family="Georgia,serif" font-size="12" fill="#5a4020" text-anchor="middle" font-style="italic">Estacion ferroviaria</text>
    <!-- Pin V -->
    <circle cx="984" cy="251" r="7" fill="#d48b47" stroke="#8a4a18" stroke-width="1.6"/>
    <text x="984" y="255" font-family="Georgia,serif" font-size="9" fill="#fff" text-anchor="middle" font-weight="700">V</text>
  </g>
  <!-- Reloj Maestro (cap6) -->
  <g clip-path="url(#mc)" filter="url(#ds)">
    <rect x="1063" y="186" width="36" height="28" rx="3" fill="#5a4a30"/>
    <polygon points="1063,186 1081,175 1099,186" fill="#3a2a18"/>
    <circle cx="1081" cy="196" r="8" fill="#e0d090" stroke="#a08030" stroke-width="1.5"/>
    <line x1="1081" y1="196" x2="1081" y2="191" stroke="#3a2818" stroke-width="1"/>
    <line x1="1081" y1="196" x2="1085" y2="200" stroke="#3a2818" stroke-width="1"/>
    <text x="1081" y="228" font-family="Georgia,serif" font-size="15" fill="#2a1a08" font-weight="700" text-anchor="middle">Reloj Maestro</text>
    <!-- Pin VI -->
    <circle cx="1080" cy="205" r="7" fill="#d48b47" stroke="#8a4a18" stroke-width="1.6"/>
    <text x="1080" y="209" font-family="Georgia,serif" font-size="9" fill="#fff" text-anchor="middle" font-weight="700">VI</text>
  </g>
  <!-- Compass rose (lower right) -->
  <g transform="translate(1095,662)" clip-path="url(#mc)">
    <circle cx="0" cy="0" r="52" fill="rgba(240,225,190,0.85)" stroke="#8a6a3d" stroke-width="2"/>
    <circle cx="0" cy="0" r="44" fill="none" stroke="rgba(140,100,50,0.4)" stroke-width="1"/>
    <polygon points="0,-46 -7,-20 0,-28 7,-20" fill="#3a2810"/>
    <polygon points="0,46 -7,20 0,28 7,20" fill="#8a6040"/>
    <polygon points="46,0 20,-7 28,0 20,7" fill="#8a6040"/>
    <polygon points="-46,0 -20,-7 -28,0 -20,7" fill="#8a6040"/>
    <text x="0" y="-52" font-family="Georgia,serif" font-size="16" fill="#2a1a08" text-anchor="middle" font-weight="700">N</text>
    <text x="0" y="64" font-family="Georgia,serif" font-size="14" fill="#5a4020" text-anchor="middle">S</text>
    <text x="60" y="5" font-family="Georgia,serif" font-size="14" fill="#5a4020" text-anchor="middle">E</text>
    <text x="-60" y="5" font-family="Georgia,serif" font-size="14" fill="#5a4020" text-anchor="middle">O</text>
    <circle cx="0" cy="0" r="5" fill="#8a6030" stroke="#5a4020" stroke-width="1"/>
  </g>
  <!-- Legend -->
  <g clip-path="url(#mc)">
    <rect x="36" y="652" width="282" height="80" rx="10" fill="rgba(240,225,190,0.9)" stroke="#8a6a3d" stroke-width="1.5"/>
    <text x="177" y="672" font-family="Georgia,serif" font-size="14" fill="#3a2810" text-anchor="middle" font-weight="700">LEYENDA</text>
    <line x1="50" y1="686" x2="82" y2="686" stroke="#c4a868" stroke-width="4"/>
    <text x="90" y="690" font-family="Georgia,serif" font-size="12" fill="#3a2810">Camino principal</text>
    <line x1="50" y1="702" x2="82" y2="702" stroke="#5580a8" stroke-width="4"/>
    <text x="90" y="706" font-family="Georgia,serif" font-size="12" fill="#3a2810">Rio de la Niebla</text>
    <circle cx="62" cy="718" r="6" fill="#d48b47" stroke="#8a4a18" stroke-width="1.5"/>
    <text x="90" y="722" font-family="Georgia,serif" font-size="12" fill="#3a2810">Localizacion del caso</text>
  </g>
  <!-- Map title -->
  <g clip-path="url(#mc)">
    <rect x="36" y="36" width="345" height="72" rx="10" fill="rgba(240,225,190,0.9)" stroke="#8a6a3d" stroke-width="1.5"/>
    <text x="208" y="62" font-family="Georgia,serif" font-size="21" fill="#2a1a08" text-anchor="middle" font-weight="700">EL MECANISMO DE BRONCE</text>
    <text x="208" y="82" font-family="Georgia,serif" font-size="15" fill="#5a4020" text-anchor="middle" font-style="italic">Mapa de investigacion, 1912</text>
    <text x="208" y="99" font-family="Georgia,serif" font-size="11" fill="#7a6040" text-anchor="middle">Cartografia municipal de San Teodoro</text>
  </g>
  <rect x="6" y="6" width="1188" height="748" rx="18" fill="none" stroke="#c8a050" stroke-width="2.5"/>
  <rect x="3" y="3" width="1194" height="754" rx="20" fill="none" stroke="#8a6030" stroke-width="1.5"/>
</svg>
