<svg xmlns="http://www.w3.org/2000/svg" viewBox="0 0 1200 720" role="img" aria-label="Plaza del Reloj, San Teodoro – Capitulo I La Llegada">
  <defs>
    <linearGradient id="sky1z" x1="0" y1="0" x2="0" y2="1">
      <stop offset="0%" stop-color="#060e1c"/><stop offset="55%" stop-color="#0e1e34"/><stop offset="100%" stop-color="#1a2c44"/>
    </linearGradient>
    <linearGradient id="ground1z" x1="0" y1="0" x2="0" y2="1">
      <stop offset="0%" stop-color="#6e6050"/><stop offset="100%" stop-color="#524438"/>
    </linearGradient>
    <radialGradient id="moonH" cx="50%" cy="50%" r="50%">
      <stop offset="0%" stop-color="#c8d4e4" stop-opacity="0.7"/><stop offset="60%" stop-color="#a8c0d8" stop-opacity="0.2"/><stop offset="100%" stop-color="#90aac8" stop-opacity="0"/>
    </radialGradient>
    <radialGradient id="lgL" cx="50%" cy="50%" r="50%">
      <stop offset="0%" stop-color="#ffe090" stop-opacity="0.85"/><stop offset="100%" stop-color="#ffcc50" stop-opacity="0"/>
    </radialGradient>
    <radialGradient id="lgR" cx="50%" cy="50%" r="50%">
      <stop offset="0%" stop-color="#ffe090" stop-opacity="0.85"/><stop offset="100%" stop-color="#ffcc50" stop-opacity="0"/>
    </radialGradient>
    <radialGradient id="ckGlow" cx="50%" cy="50%" r="50%">
      <stop offset="0%" stop-color="#f4e090" stop-opacity="0.9"/><stop offset="100%" stop-color="#f0d060" stop-opacity="0"/>
    </radialGradient>
    <linearGradient id="fogG1" x1="0" y1="0" x2="0" y2="1">
      <stop offset="0%" stop-color="rgba(130,155,185,0)"/><stop offset="55%" stop-color="rgba(130,155,185,0.52)"/><stop offset="100%" stop-color="rgba(110,140,170,0.38)"/>
    </linearGradient>
    <filter id="gb1"><feGaussianBlur stdDeviation="10"/></filter>
    <filter id="sb1"><feGaussianBlur stdDeviation="3.5"/></filter>
    <clipPath id="z1c"><rect width="1200" height="720"/></clipPath>
  </defs>
  <rect width="1200" height="720" fill="url(#sky1z)"/>
  <!-- Moon halo + crescent -->
  <circle cx="960" cy="108" r="72" fill="url(#moonH)" filter="url(#gb1)"/>
  <circle cx="960" cy="108" r="40" fill="#d0d8e8"/>
  <circle cx="975" cy="96"  r="34" fill="#0e1e34"/>
  <!-- Stars -->
  <g fill="rgba(255,255,255,0.8)">
    <circle cx="55" cy="38" r="1.2"/><circle cx="128" cy="22" r="1.0"/><circle cx="210" cy="50" r="1.4"/><circle cx="295" cy="18" r="0.9"/>
    <circle cx="378" cy="35" r="1.1"/><circle cx="455" cy="14" r="1.3"/><circle cx="530" cy="44" r="0.9"/><circle cx="618" cy="25" r="1.2"/>
    <circle cx="692" cy="55" r="1.0"/><circle cx="755" cy="16" r="1.3"/><circle cx="838" cy="40" r="0.8"/>
    <circle cx="1055" cy="42" r="1.0"/><circle cx="1110" cy="72" r="1.2"/><circle cx="1168" cy="28" r="1.0"/>
    <circle cx="42" cy="88" r="0.8"/><circle cx="175" cy="78" r="1.0"/><circle cx="435" cy="72" r="1.1"/>
    <circle cx="148" cy="108" r="0.7"/><circle cx="880" cy="60" r="1.0"/>
  </g>
  <!-- Background silhouette buildings -->
  <g fill="#0a1622">
    <rect x="0" y="248" width="105" height="332"/><rect x="10" y="210" width="65" height="42"/>
    <rect x="100" y="265" width="80" height="315"/><rect x="110" y="232" width="48" height="38"/>
    <rect x="1020" y="255" width="85" height="325"/><rect x="1025" y="218" width="54" height="42"/>
    <rect x="1100" y="272" width="100" height="308"/><rect x="1108" y="238" width="50" height="38"/>
  </g>
  <!-- Left building – Casa de la Villa -->
  <rect x="10"  y="290" width="268" height="430" fill="#18232e"/>
  <rect x="10"  y="490" width="268" height="230" fill="#121c26"/>
  <rect x="5"   y="278" width="278" height="16"  fill="#22303f"/>
  <polygon points="48,278 144,248 240,278" fill="#1c2c3c"/>
  <!-- Pilasters left -->
  <rect x="28" y="290" width="14" height="430" fill="#101820"/>
  <rect x="84" y="290" width="14" height="430" fill="#101820"/>
  <rect x="140" y="290" width="14" height="430" fill="#101820"/>
  <rect x="196" y="290" width="14" height="430" fill="#101820"/>
  <rect x="252" y="290" width="14" height="430" fill="#101820"/>
  <!-- Windows left, 3 rows -->
  <rect x="44" y="312" width="32" height="46" rx="4" fill="#080c14"/>
  <rect x="45" y="313" width="30" height="44" rx="3" fill="rgba(255,210,100,0.16)"/>
  <line x1="60" y1="313" x2="60" y2="357" stroke="rgba(80,60,30,0.4)" stroke-width="1"/>
  <rect x="102" y="312" width="32" height="46" rx="4" fill="#080c14"/>
  <rect x="103" y="313" width="30" height="44" rx="3" fill="rgba(255,210,100,0.2)"/>
  <line x1="118" y1="313" x2="118" y2="357" stroke="rgba(80,60,30,0.4)" stroke-width="1"/>
  <rect x="158" y="312" width="32" height="46" rx="4" fill="#080c14"/>
  <rect x="159" y="313" width="30" height="44" rx="3" fill="rgba(255,210,100,0.1)"/>
  <rect x="214" y="312" width="32" height="46" rx="4" fill="#080c14"/>
  <rect x="215" y="313" width="30" height="44" rx="3" fill="rgba(255,210,100,0.22)"/>
  <rect x="44" y="376" width="32" height="46" rx="4" fill="#080c14"/>
  <rect x="45" y="377" width="30" height="44" rx="3" fill="rgba(255,210,100,0.09)"/>
  <rect x="102" y="376" width="32" height="46" rx="4" fill="#080c14"/>
  <rect x="103" y="377" width="30" height="44" rx="3" fill="rgba(255,210,100,0.24)"/>
  <rect x="158" y="376" width="32" height="46" rx="4" fill="#080c14"/>
  <rect x="214" y="376" width="32" height="46" rx="4" fill="#080c14"/>
  <rect x="215" y="377" width="30" height="44" rx="3" fill="rgba(255,210,100,0.14)"/>
  <rect x="44" y="440" width="32" height="46" rx="4" fill="#080c14"/>
  <rect x="45" y="441" width="30" height="44" rx="3" fill="rgba(255,210,100,0.2)"/>
  <rect x="102" y="440" width="32" height="46" rx="4" fill="#080c14"/>
  <rect x="158" y="440" width="32" height="46" rx="4" fill="#080c14"/>
  <rect x="159" y="441" width="30" height="44" rx="3" fill="rgba(255,210,100,0.17)"/>
  <rect x="214" y="440" width="32" height="46" rx="4" fill="#080c14"/>
  <!-- Door left arch -->
  <rect x="118" y="560" width="52" height="82" rx="26 26 0 0" fill="#060a12"/>
  <rect x="120" y="562" width="22" height="68" rx="11 11 0 0" fill="rgba(255,210,80,0.09)"/>
  <rect x="116" y="638" width="56" height="6" fill="#1a2838"/>
  <rect x="100" y="644" width="88" height="8" fill="#18263a"/>
  <!-- Right building – Ayuntamiento -->
  <rect x="922" y="298" width="278" height="422" fill="#1c2838"/>
  <rect x="922" y="492" width="278" height="228" fill="#162030"/>
  <rect x="917" y="284" width="288" height="16"  fill="#263445"/>
  <polygon points="942,284 1064,252 1186,284" fill="#202e40"/>
  <circle cx="1064" cy="268" r="14" fill="#131e2c" stroke="#2a3a50" stroke-width="2"/>
  <circle cx="1064" cy="268" r="9"  fill="none"   stroke="rgba(255,210,100,0.2)" stroke-width="1.5"/>
  <rect x="942" y="298" width="14" height="422" fill="#141e2c"/>
  <rect x="1004" y="298" width="14" height="422" fill="#141e2c"/>
  <rect x="1064" y="298" width="14" height="422" fill="#141e2c"/>
  <rect x="1124" y="298" width="14" height="422" fill="#141e2c"/>
  <rect x="1184" y="298" width="14" height="422" fill="#141e2c"/>
  <rect x="958" y="318" width="32" height="46" rx="4" fill="#080c14"/>
  <rect x="959" y="319" width="30" height="44" rx="3" fill="rgba(255,210,100,0.18)"/>
  <line x1="974" y1="319" x2="974" y2="363" stroke="rgba(80,60,30,0.4)" stroke-width="1"/>
  <rect x="1020" y="318" width="32" height="46" rx="4" fill="#080c14"/>
  <rect x="1021" y="319" width="30" height="44" rx="3" fill="rgba(255,210,100,0.1)"/>
  <rect x="1082" y="318" width="32" height="46" rx="4" fill="#080c14"/>
  <rect x="1083" y="319" width="30" height="44" rx="3" fill="rgba(255,210,100,0.22)"/>
  <rect x="1142" y="318" width="32" height="46" rx="4" fill="#080c14"/>
  <rect x="1143" y="319" width="30" height="44" rx="3" fill="rgba(255,210,100,0.14)"/>
  <rect x="958" y="382" width="32" height="46" rx="4" fill="rgba(255,210,100,0.19)"/>
  <rect x="1020" y="382" width="32" height="46" rx="4" fill="#080c14"/>
  <rect x="1082" y="382" width="32" height="46" rx="4" fill="#080c14"/>
  <rect x="1083" y="383" width="30" height="44" rx="3" fill="rgba(255,210,100,0.12)"/>
  <rect x="1142" y="382" width="32" height="46" rx="4" fill="#080c14"/>
  <rect x="958" y="446" width="32" height="46" rx="4" fill="#080c14"/>
  <rect x="1020" y="446" width="32" height="46" rx="4" fill="rgba(255,210,100,0.22)"/>
  <rect x="1082" y="446" width="32" height="46" rx="4" fill="#080c14"/>
  <rect x="1142" y="446" width="32" height="46" rx="4" fill="rgba(255,210,100,0.11)"/>
  <rect x="1034" y="562" width="56" height="85" rx="28 28 0 0" fill="#060a12"/>
  <rect x="1036" y="564" width="22" height="72" rx="11 11 0 0" fill="rgba(255,200,80,0.1)"/>
  <rect x="1062" y="564" width="24" height="72" rx="11 11 0 0" fill="rgba(255,200,80,0.06)"/>
  <rect x="1028" y="644" width="68" height="6" fill="#1e3040"/>
  <rect x="1010" y="650" width="104" height="8" fill="#18283c"/>
  <!-- Central Clock Tower -->
  <rect x="468" y="534" width="264" height="186" fill="#1c2432"/>
  <g stroke="rgba(20,30,44,0.7)" stroke-width="1.5" fill="none">
    <line x1="468" y1="560" x2="732" y2="560"/><line x1="468" y1="584" x2="732" y2="584"/><line x1="468" y1="608" x2="732" y2="608"/>
  </g>
  <rect x="492" y="370" width="216" height="170" fill="#181f2e"/>
  <rect x="516" y="224" width="168" height="152" fill="#14182c"/>
  <rect x="548" y="140" width="104" height="88"  fill="#101424"/>
  <polygon points="468,538 500,370 468,370" fill="#161c2a"/>
  <polygon points="732,538 700,370 732,370" fill="#161c2a"/>
  <polygon points="492,375 518,226 492,226" fill="#12182a"/>
  <polygon points="708,375 682,226 708,226" fill="#12182a"/>
  <rect x="460" y="528" width="280" height="10" fill="#26324a"/>
  <rect x="484" y="364" width="232" height="10" fill="#222e44"/>
  <rect x="508" y="218" width="184" height="10" fill="#1e2a40"/>
  <rect x="540" y="133" width="120" height="10" fill="#1a263c"/>
  <!-- Tower windows -->
  <rect x="528" y="392" width="30" height="48" rx="15 15 0 0" fill="#080c14"/>
  <rect x="529" y="393" width="28" height="46" rx="14 14 0 0" fill="rgba(255,205,80,0.14)"/>
  <rect x="642" y="392" width="30" height="48" rx="15 15 0 0" fill="#080c14"/>
  <rect x="643" y="393" width="28" height="46" rx="14 14 0 0" fill="rgba(255,205,80,0.18)"/>
  <rect x="548" y="248" width="24" height="38" rx="12 12 0 0" fill="rgba(255,205,80,0.1)"/>
  <rect x="628" y="248" width="24" height="38" rx="12 12 0 0" fill="rgba(255,205,80,0.08)"/>
  <rect x="556" y="154" width="38" height="58" rx="19 19 0 0" fill="#060810"/>
  <rect x="606" y="154" width="38" height="58" rx="19 19 0 0" fill="rgba(180,155,80,0.15)"/>
  <!-- Clock face glow + face -->
  <circle cx="600" cy="178" r="62" fill="url(#ckGlow)" filter="url(#sb1)"/>
  <circle cx="600" cy="178" r="50" fill="#ece0ba" stroke="#5a4218" stroke-width="4"/>
  <circle cx="600" cy="178" r="44" fill="none" stroke="#8a6a22" stroke-width="1.5"/>
  <!-- Hour ticks -->
  <g stroke="#2a1a08" stroke-width="3" stroke-linecap="round">
    <line x1="600" y1="130" x2="600" y2="140"/>
    <line x1="638" y1="140" x2="634" y2="149"/><line x1="664" y1="166" x2="655" y2="170"/>
    <line x1="648" y1="178" x2="638" y2="178"/>
    <line x1="664" y1="190" x2="655" y2="186"/><line x1="638" y1="216" x2="634" y2="207"/>
    <line x1="600" y1="226" x2="600" y2="216"/>
    <line x1="562" y1="216" x2="566" y2="207"/><line x1="536" y1="190" x2="545" y2="186"/>
    <line x1="552" y1="178" x2="562" y2="178"/>
    <line x1="536" y1="166" x2="545" y2="170"/><line x1="562" y1="140" x2="566" y2="149"/>
  </g>
  <g font-family="Georgia,serif" font-size="11" fill="#1e1206" text-anchor="middle" font-weight="700">
    <text x="600" y="137">XII</text><text x="648" y="156">I</text>
    <text x="660" y="182">III</text><text x="600" y="224">VI</text><text x="540" y="182">IX</text>
  </g>
  <!-- Hands: ~11:52 -->
  <line x1="600" y1="178" x2="593" y2="146" stroke="#100804" stroke-width="5" stroke-linecap="round"/>
  <line x1="600" y1="178" x2="627" y2="170" stroke="#100804" stroke-width="3.5" stroke-linecap="round"/>
  <line x1="600" y1="178" x2="605" y2="202" stroke="#a02010" stroke-width="1.5" stroke-linecap="round"/>
  <circle cx="600" cy="178" r="5" fill="#1e1008"/>
  <!-- Spire -->
  <polygon points="600,38 626,140 574,140" fill="#0c1020"/>
  <circle cx="600" cy="38" r="6" fill="#a08020"/>
  <circle cx="600" cy="38" r="3" fill="#c0a030"/>
  <!-- Mini turrets -->
  <rect x="543" y="127" width="12" height="14" fill="#10162a"/>
  <rect x="645" y="127" width="12" height="14" fill="#10162a"/>
  <polygon points="543,127 549,117 555,127" fill="#0c1222"/>
  <polygon points="645,127 651,117 657,127" fill="#0c1222"/>
  <!-- Tower entrance -->
  <rect x="568" y="632" width="64" height="90" rx="32 32 0 0" fill="#060810"/>
  <rect x="570" y="634" width="26" height="76" rx="13 13 0 0" fill="rgba(255,200,80,0.09)"/>
  <rect x="602" y="634" width="28" height="76" rx="13 13 0 0" fill="rgba(255,200,80,0.06)"/>
  <rect x="562" y="717" width="76" height="5" fill="#202e42"/>
  <rect x="594" y="622" width="12" height="14" rx="3" fill="#9a8012" stroke="#6a5a10" stroke-width="1"/>
  <rect x="595" y="623" width="10" height="12" rx="2" fill="rgba(255,220,100,0.8)"/>
  <ellipse cx="600" cy="636" rx="18" ry="12" fill="rgba(255,210,80,0.15)"/>
  <!-- Left gas lamp -->
  <ellipse cx="300" cy="622" rx="180" ry="30" fill="url(#lgL)" opacity="0.5"/>
  <rect x="296" y="408" width="9" height="218" fill="#28200e" rx="2"/>
  <path d="M301,414 Q320,398 318,374" fill="none" stroke="#28200e" stroke-width="7" stroke-linecap="round"/>
  <rect x="310" y="370" width="18" height="24" rx="4" fill="#9a8810" stroke="#6a5e08" stroke-width="1.5"/>
  <rect x="311" y="371" width="16" height="20" rx="3" fill="rgba(255,224,100,0.94)"/>
  <polygon points="309,370 319,360 330,370" fill="#5a4808"/>
  <ellipse cx="318" cy="392" rx="32" ry="26" fill="rgba(255,220,100,0.2)"/>
  <rect x="289" y="620" width="24" height="10" rx="3" fill="#352c12"/>
  <rect x="285" y="628" width="32" height="6"  rx="2" fill="#28220a"/>
  <!-- Right gas lamp -->
  <ellipse cx="902" cy="622" rx="180" ry="30" fill="url(#lgR)" opacity="0.5"/>
  <rect x="898" y="408" width="9" height="218" fill="#28200e" rx="2"/>
  <path d="M902,414 Q882,398 884,374" fill="none" stroke="#28200e" stroke-width="7" stroke-linecap="round"/>
  <rect x="876" y="370" width="18" height="24" rx="4" fill="#9a8810" stroke="#6a5e08" stroke-width="1.5"/>
  <rect x="877" y="371" width="16" height="20" rx="3" fill="rgba(255,224,100,0.94)"/>
  <polygon points="875,370 885,360 895,370" fill="#5a4808"/>
  <ellipse cx="884" cy="392" rx="32" ry="26" fill="rgba(255,220,100,0.2)"/>
  <rect x="889" y="620" width="24" height="10" rx="3" fill="#352c12"/>
  <rect x="885" y="628" width="32" height="6"  rx="2" fill="#28220a"/>
  <!-- Plaza ground + cobblestones -->
  <rect x="0" y="592" width="1200" height="128" fill="url(#ground1z)"/>
  <g stroke="rgba(0,0,0,0.26)" stroke-width="0.9" fill="none">
    <line x1="0" y1="610" x2="1200" y2="610"/><line x1="0" y1="628" x2="1200" y2="628"/>
    <line x1="0" y1="646" x2="1200" y2="646"/><line x1="0" y1="664" x2="1200" y2="664"/>
    <line x1="0" y1="682" x2="1200" y2="682"/><line x1="0" y1="700" x2="1200" y2="700"/>
    <line x1="0" y1="718" x2="1200" y2="718"/>
  </g>
  <g stroke="rgba(0,0,0,0.2)" stroke-width="0.7" fill="none">
    <line x1="30" y1="592" x2="30" y2="720"/><line x1="60" y1="592" x2="60" y2="720"/>
    <line x1="90" y1="592" x2="90" y2="720"/><line x1="120" y1="592" x2="120" y2="720"/>
    <line x1="150" y1="592" x2="150" y2="720"/><line x1="180" y1="592" x2="180" y2="720"/>
    <line x1="210" y1="592" x2="210" y2="720"/><line x1="240" y1="592" x2="240" y2="720"/>
    <line x1="270" y1="592" x2="270" y2="720"/><line x1="300" y1="592" x2="300" y2="720"/>
    <line x1="360" y1="592" x2="360" y2="720"/><line x1="420" y1="592" x2="420" y2="720"/>
    <line x1="480" y1="592" x2="480" y2="720"/><line x1="540" y1="592" x2="540" y2="720"/>
    <line x1="630" y1="592" x2="630" y2="720"/><line x1="690" y1="592" x2="690" y2="720"/>
    <line x1="750" y1="592" x2="750" y2="720"/><line x1="810" y1="592" x2="810" y2="720"/>
    <line x1="870" y1="592" x2="870" y2="720"/><line x1="930" y1="592" x2="930" y2="720"/>
    <line x1="990" y1="592" x2="990" y2="720"/><line x1="1050" y1="592" x2="1050" y2="720"/>
    <line x1="1110" y1="592" x2="1110" y2="720"/><line x1="1170" y1="592" x2="1170" y2="720"/>
  </g>
  <!-- Plaza fountain -->
  <ellipse cx="600" cy="608" rx="90" ry="22"  fill="rgba(70,95,120,0.35)" stroke="rgba(80,105,135,0.5)" stroke-width="2"/>
  <ellipse cx="600" cy="602" rx="50" ry="12"  fill="rgba(80,108,140,0.25)"/>
  <rect    x="594" y="577" width="14" height="28" fill="rgba(75,90,110,0.55)"/>
  <ellipse cx="600" cy="577" rx="28" ry="8"   fill="rgba(80,108,140,0.35)"/>
  <ellipse cx="600" cy="604" rx="70" ry="14" fill="none" stroke="rgba(140,170,200,0.2)" stroke-width="1.5"/>
  <!-- Silhouette figure -->
  <g opacity="0.7">
    <ellipse cx="367" cy="567" rx="11" ry="10" fill="#0c1420"/>
    <rect x="360" y="561" width="22" height="6" rx="11 11 0 0" fill="#0a1018"/>
    <rect x="364" y="551" width="14" height="12" rx="4" fill="#0a1018"/>
    <rect x="357" y="574" width="20" height="38" rx="5 5 0 0" fill="#0c1420"/>
    <polygon points="357,612 350,630 367,620" fill="#0a1018"/>
    <polygon points="377,612 384,630 367,620" fill="#0a1018"/>
    <rect x="359" y="626" width="7" height="20" fill="#0c1420"/>
    <rect x="369" y="626" width="7" height="20" fill="#0c1420"/>
    <line x1="382" y1="575" x2="394" y2="644" stroke="#1a1a10" stroke-width="2.5" stroke-linecap="round"/>
    <path d="M382,575 Q378,567 374,567" fill="none" stroke="#1a1a10" stroke-width="2.5" stroke-linecap="round"/>
    <rect x="347" y="592" width="14" height="10" rx="2" fill="#16201a"/>
    <rect x="348" y="590" width="12" height="4"  rx="2" fill="#1c2a22"/>
  </g>
  <!-- Fog layer -->
  <rect x="0" y="548" width="1200" height="172" fill="url(#fogG1)"/>
  <ellipse cx="220"  cy="642" rx="320" ry="65" fill="rgba(130,155,185,0.22)"/>
  <ellipse cx="950"  cy="652" rx="350" ry="60" fill="rgba(125,150,180,0.2)"/>
  <ellipse cx="600"  cy="627" rx="280" ry="52" fill="rgba(135,160,190,0.18)"/>
  <!-- Label -->
  <rect x="842" y="628" width="346" height="88" rx="10" fill="rgba(4,8,18,0.88)"/>
  <rect x="846" y="632" width="338" height="80" rx="8" fill="none" stroke="rgba(200,168,60,0.45)" stroke-width="1.2"/>
  <text x="1015" y="659" font-family="Georgia,serif" font-size="19" fill="#f0d888" font-weight="700" text-anchor="middle">Plaza del Reloj</text>
  <text x="1015" y="680" font-family="Georgia,serif" font-size="13" fill="#c8a450" text-anchor="middle">San Teodoro · Otoño 1912</text>
  <text x="1015" y="702" font-family="Georgia,serif" font-size="10" fill="#987840" text-anchor="middle" font-style="italic">«La torre empieza a mentir»</text>
</svg>
